<svg width="18" height="15" viewBox="0 0 18 15" fill="none" xmlns="http://www.w3.org/2000/svg">
<path d="M10.9994 14.0001C11.0767 14.0001 10.9376 14.0614 10.9994 14.0001L16.9994 8.00007C17.0535 7.94284 16.9955 8.07774 16.9994 8.00007C16.9994 7.97963 16.9994 7.0246 16.9994 7.00007C16.9917 6.93875 17.0419 7.04912 16.9994 7.00007C16.9955 6.99189 17.0033 7.00824 16.9994 7.00007L10.9994 1.00007C10.8796 0.873349 11.1192 0.873349 10.9994 1.00007C10.8796 1.12679 10.8796 1.87335 10.9994 2.00007L15.9994 7.00007H0.999405C0.829357 7.00007 0.999405 7.82021 0.999405 8.00007C0.999405 8.17993 0.829357 8.00007 0.999405 8.00007H15.9994L10.9994 13.0001C10.9376 13.0655 10.9994 13.9142 10.9994 14.0001C10.9414 13.9347 10.9994 14.0859 10.9994 14.0001C10.9221 14.0001 11.0612 14.0614 10.9994 14.0001Z" fill="#23BEEC"/>
</svg>
