<svg width="44" height="35" viewBox="0 0 44 35" fill="none" xmlns="http://www.w3.org/2000/svg">
<path d="M18 34C17.7923 34 17.1662 34.1557 17 34L1 18C0.854588 17.8548 1.01039 18.1972 1 18C1 17.9482 1 17.0623 1 17C1.02077 16.8444 0.88575 17.1246 1 17C1.01039 16.9793 0.989613 17.0208 1 17L17 1.00004C17.322 0.678371 17.678 0.678371 18 1.00004C18.322 1.32172 18.322 1.67837 18 2.00004L4 17H43C43.457 17 44 17.5435 44 18C44 18.4566 43.457 18 43 18H4L18 33C18.1662 33.1661 18 32.7821 18 33C18 33.2179 18.1558 33.834 18 34C18.2077 34 17.8338 34.1557 18 34Z" fill="white"/>
</svg>
