<svg width="13" height="10" viewBox="0 0 13 10" fill="none" xmlns="http://www.w3.org/2000/svg">
<path d="M8.00725 10C8.07005 10 8.13599 9.97484 8.18623 9.92768L12.9278 5.17962C12.9717 5.1356 12.9969 5.079 13 5.01926C13 5.00354 13 4.98782 13 4.96895C12.9937 4.92178 12.9749 4.87462 12.9403 4.83688C12.9372 4.83059 12.9309 4.82745 12.9278 4.82116L8.18623 0.0731075C8.08889 -0.0243691 7.92874 -0.0243691 7.8314 0.0731075C7.73406 0.170584 7.73406 0.330949 7.8314 0.428425L12.1428 4.74884H0.251208C0.113043 4.74884 0 4.86204 0 5.00039C0 5.13875 0.113043 5.25195 0.251208 5.25195H12.1428L7.82826 9.56922C7.77802 9.61953 7.75604 9.68242 7.75604 9.74845C7.75604 9.81448 7.78116 9.87737 7.82826 9.92768C7.8785 9.97484 7.94444 10 8.00725 10Z" fill="#AACF38"/>
</svg>
