<svg width="24" height="23" viewBox="0 0 24 23" fill="none" xmlns="http://www.w3.org/2000/svg">
<path d="M1.39344 1.22186C1.97923 0.636069 2.92898 0.636069 3.51476 1.22186L22.6066 20.3137C23.1924 20.8995 23.1924 21.8493 22.6066 22.4351C22.0209 23.0208 21.0711 23.0208 20.4853 22.4351L1.39344 3.34318C0.807655 2.75739 0.807655 1.80764 1.39344 1.22186Z" fill="white"/>
<path d="M22.6068 1.22181C22.021 0.636024 21.0712 0.636024 20.4854 1.22181L1.39356 20.3137C0.807777 20.8995 0.807776 21.8492 1.39356 22.435C1.97935 23.0208 2.9291 23.0208 3.51488 22.435L22.6068 3.34313C23.1926 2.75734 23.1926 1.8076 22.6068 1.22181Z" fill="white"/>
</svg>
