<svg width="14" height="12" viewBox="0 0 14 12" fill="none" xmlns="http://www.w3.org/2000/svg">
<path d="M3.42139 0.109977C3.59508 -0.0617623 3.92045 -0.0268894 4.05053 0.178597C4.16864 0.362336 4.09916 0.590696 4.12039 0.794308C5.41919 0.806307 6.71838 0.793933 8.01719 0.800682C8.09052 0.801432 8.16386 0.795433 8.2368 0.786808C8.25109 0.561823 8.17273 0.285841 8.36186 0.110352C8.53555 -0.0621369 8.86131 -0.0272646 8.991 0.178972C9.10949 0.362335 9.04002 0.591071 9.06047 0.794683C9.51013 0.807807 9.96056 0.790933 10.4106 0.802557C11.1478 0.83443 11.8422 1.2904 12.1533 1.93948C12.2876 2.21059 12.3555 2.51132 12.3524 2.81205C12.3513 3.625 12.3548 4.43795 12.3505 5.2509C12.3544 5.30302 12.344 5.36039 12.3687 5.40914C12.4489 5.48188 12.5431 5.5385 12.6284 5.60637C13.2402 6.08522 13.686 6.7598 13.8813 7.49888C14.0943 8.28408 14.0183 9.13902 13.6717 9.8781C13.2085 10.8894 12.239 11.6634 11.127 11.9067C10.6148 12.0331 10.0833 11.9918 9.5607 11.999C7.05148 11.9982 4.54226 11.9993 2.03343 11.9982C1.21246 12.0005 0.430475 11.4691 0.140994 10.7244C0.039097 10.4747 -0.00528999 10.2047 0.000499625 9.93622C0.00204352 7.56075 0.000885764 5.18565 0.00127174 2.81018C-0.00528982 2.27321 0.226295 1.73925 0.623462 1.36615C1.01407 0.99342 1.56331 0.784184 2.11101 0.798808C2.50586 0.790558 2.90225 0.816057 3.29633 0.786433C3.31139 0.561448 3.23226 0.28584 3.42139 0.109977ZM0.933785 2.30659C0.79715 2.58257 0.820695 2.8968 0.830344 3.19378C1.2059 3.20615 1.58145 3.19528 1.957 3.19903C5.14708 3.19603 8.33716 3.20465 11.5272 3.19453C11.5284 2.9178 11.557 2.62869 11.4466 2.36621C11.2848 1.95036 10.8676 1.64025 10.4106 1.60501C9.96095 1.59451 9.51013 1.59713 9.06009 1.60388C9.0404 1.80749 9.10949 2.03585 8.991 2.21959C8.86092 2.42545 8.53516 2.46108 8.36186 2.28821C8.17196 2.11272 8.25186 1.83674 8.2368 1.61138C8.03571 1.58626 7.83308 1.60426 7.63083 1.59976C6.46055 1.60238 5.28989 1.59376 4.12 1.60388C4.09916 1.80749 4.16864 2.03585 4.05091 2.21997C3.92084 2.42583 3.59508 2.46033 3.42139 2.28859C3.23188 2.11272 3.31177 1.83674 3.29633 1.61176C2.8899 1.58326 2.48116 1.60726 2.07357 1.59938C1.59303 1.58776 1.12561 1.87949 0.933785 2.30659ZM0.829959 4.0041C0.818379 5.91873 0.828801 7.83373 0.824555 9.74873C0.823783 9.96734 0.814519 10.1935 0.896732 10.4016C1.04726 10.8275 1.46566 11.1489 1.92728 11.1916C2.1168 11.2066 2.30747 11.1965 2.49737 11.1988C4.32457 11.1999 6.15177 11.1965 7.97897 11.2006C7.53819 10.8313 7.15415 10.3892 6.91793 9.86835C6.81217 9.91822 6.71568 10.0037 6.59062 9.99809C6.3077 9.99922 6.0244 10.0022 5.74148 9.99659C5.52958 9.99284 5.34856 9.80273 5.3528 9.59874C5.34856 9.39476 5.52997 9.20464 5.74148 9.20089C6.05528 9.19264 6.36946 9.20239 6.68326 9.19939C6.59564 8.80417 6.56399 8.39844 6.62073 7.99685C6.32662 7.99497 6.03251 8.00585 5.73916 7.99535C5.55814 7.99047 5.3941 7.85285 5.36168 7.68037C5.30031 7.43888 5.51955 7.18465 5.77467 7.19927C6.11896 7.20302 6.46557 7.17865 6.80716 7.22927C7.19313 6.10434 8.19242 5.20327 9.37659 4.91454C10.0821 4.72743 10.8417 4.77468 11.5272 5.01616C11.5303 4.67868 11.5315 4.34121 11.5268 4.0041C10.9232 3.99285 10.3187 4.00298 9.71509 3.99923C6.75351 4.0026 3.79154 3.99323 0.829959 4.0041ZM10.003 5.61237C9.1917 5.68812 8.42709 6.12009 7.95466 6.7643C7.47219 7.40626 7.29696 8.25408 7.4857 9.02728C7.71381 10.0408 8.57376 10.8868 9.61473 11.1193C10.2917 11.2831 11.0289 11.1924 11.6442 10.8729C12.2278 10.5737 12.6991 10.0731 12.9523 9.481C13.263 8.77192 13.2495 7.93685 12.9167 7.23752C12.6647 6.6968 12.2289 6.23971 11.6947 5.95135C11.1841 5.67387 10.5851 5.55463 10.003 5.61237Z" fill="#C7C7C7"/>
<path d="M2.74169 5.22352C2.93892 5.17552 3.14542 5.20814 3.34651 5.19914C3.51904 5.20552 3.6989 5.17627 3.86564 5.23027C4.04975 5.29851 4.15628 5.50812 4.10803 5.69224C4.06596 5.8711 3.88649 6.00647 3.69736 5.99859C3.42525 6.00009 3.15275 6.00084 2.88064 5.99784C2.6699 6.00347 2.47922 5.82498 2.4715 5.62137C2.45838 5.45 2.57379 5.27864 2.74169 5.22352Z" fill="#C7C7C7"/>
<path d="M5.63572 5.21978C5.85997 5.17553 6.09156 5.20965 6.3189 5.19878C6.50571 5.20253 6.72803 5.16578 6.87277 5.30977C7.05688 5.46426 7.03719 5.77324 6.84382 5.91198C6.70873 6.02485 6.52038 5.99672 6.35672 6.0001C6.14984 5.99522 5.94334 6.00497 5.73685 5.99635C5.50912 5.9911 5.32231 5.76911 5.35589 5.55163C5.37249 5.40051 5.48635 5.2644 5.63572 5.21978Z" fill="#C7C7C7"/>
<path d="M10.1524 6.42308C10.3902 6.32934 10.6881 6.50445 10.7016 6.75606C10.7136 7.21615 10.7016 7.67737 10.7059 8.13822C10.7032 8.19184 10.7151 8.24809 10.7599 8.28446C10.9633 8.4862 11.1725 8.68306 11.3779 8.8833C11.4527 8.95567 11.5172 9.04566 11.5269 9.1514C11.557 9.34714 11.4111 9.54625 11.2138 9.589C11.0695 9.62462 10.9139 9.57288 10.8124 9.46976C10.5484 9.21403 10.2856 8.95679 10.0215 8.70106C9.92467 8.61519 9.87449 8.49032 9.88183 8.36396C9.8826 7.85024 9.88144 7.33652 9.88221 6.82318C9.87179 6.65069 9.98295 6.4797 10.1524 6.42308Z" fill="#C7C7C7"/>
<path d="M2.77913 7.2124C3.08328 7.18165 3.39167 7.20602 3.69736 7.19927C3.9247 7.18802 4.13236 7.38901 4.11846 7.61025C4.1173 7.81048 3.94053 7.99084 3.73326 7.99534C3.44995 8.00322 3.16588 7.99872 2.88219 7.99759C2.66758 8.00359 2.47112 7.8206 2.47074 7.61212C2.46186 7.43063 2.59811 7.25552 2.77913 7.2124Z" fill="#C7C7C7"/>
<path d="M2.78415 9.21101C3.08598 9.18251 3.39167 9.20463 3.69544 9.19901C3.9193 9.18701 4.12387 9.38162 4.11885 9.59874C4.12387 9.80272 3.94207 9.99284 3.73056 9.99658C3.44803 10.0018 3.16472 9.99959 2.88219 9.99809C2.6865 10.0022 2.50548 9.85147 2.47614 9.66436C2.43755 9.46562 2.58152 9.25451 2.78415 9.21101Z" fill="#C7C7C7"/>
</svg>
