<svg width="24" height="20" viewBox="0 0 24 20" fill="none" xmlns="http://www.w3.org/2000/svg">
<path d="M5.86524 0.183294C6.16299 -0.102937 6.72078 -0.0448157 6.94376 0.297662C7.14623 0.603893 7.02713 0.984493 7.06352 1.32385C9.29004 1.34384 11.5172 1.32322 13.7437 1.33447C13.8695 1.33572 13.9952 1.32572 14.1202 1.31135C14.1447 0.936371 14.0104 0.476401 14.3346 0.18392C14.6324 -0.103561 15.1908 -0.045441 15.4131 0.298287C15.6163 0.603892 15.4972 0.985118 15.5322 1.32447C16.3031 1.34635 17.0753 1.31822 17.8468 1.3376C19.1105 1.39072 20.3009 2.15067 20.8342 3.23247C21.0645 3.68432 21.1809 4.18554 21.1756 4.68675C21.1736 6.04167 21.1796 7.39658 21.1723 8.75149C21.1789 8.83836 21.1611 8.93398 21.2034 9.01523C21.341 9.13647 21.5025 9.23084 21.6487 9.34396C22.6975 10.142 23.4617 11.2663 23.7965 12.4981C24.1617 13.8068 24.0314 15.2317 23.4372 16.4635C22.6432 18.149 20.9811 19.4389 19.0748 19.8445C18.1968 20.0551 17.2857 19.9864 16.3898 19.9983C12.0882 19.997 7.78673 19.9989 3.48587 19.997C2.0785 20.0008 0.737957 19.1152 0.241704 17.874C0.0670235 17.4578 -0.00906855 17.0078 0.0008565 16.5604C0.00350318 12.6012 0.00151845 8.64275 0.00218012 4.68363C-0.00906827 3.78869 0.387934 2.89874 1.06879 2.27691C1.7384 1.6557 2.67996 1.30697 3.61887 1.33135C4.29576 1.3176 4.97529 1.36009 5.65086 1.31072C5.67666 0.935746 5.54102 0.476401 5.86524 0.183294ZM1.60077 3.84431C1.36654 4.30428 1.40691 4.828 1.42345 5.32296C2.06725 5.34359 2.71106 5.32546 3.35486 5.33171C8.82357 5.32671 14.2923 5.34109 19.761 5.32421C19.763 4.86299 19.8119 4.38115 19.6227 3.94368C19.3454 3.2506 18.6302 2.73376 17.8468 2.67501C17.0759 2.65751 16.3031 2.66188 15.5316 2.67313C15.4978 3.01249 15.6163 3.39309 15.4131 3.69932C15.1902 4.04242 14.6317 4.10179 14.3346 3.81369C14.0091 3.5212 14.146 3.06123 14.1202 2.68563C13.7755 2.64376 13.4281 2.67376 13.0814 2.66626C11.0752 2.67063 9.06838 2.65626 7.06286 2.67313C7.02713 3.01249 7.14623 3.39309 6.94442 3.69994C6.72144 4.04305 6.16299 4.10054 5.86524 3.81431C5.54036 3.52121 5.67732 3.06123 5.65086 2.68626C4.95412 2.63876 4.25341 2.67876 3.55469 2.66563C2.73091 2.64626 1.92962 3.13248 1.60077 3.84431ZM1.42279 6.6735C1.40294 9.86455 1.4208 13.0562 1.41352 16.2479C1.4122 16.6122 1.39632 16.9891 1.53725 17.3359C1.79531 18.0459 2.51256 18.5815 3.30391 18.6527C3.62879 18.6777 3.95566 18.6609 4.2812 18.6646C7.41355 18.6665 10.5459 18.6609 13.6782 18.6677C12.9226 18.0521 12.2643 17.3153 11.8593 16.4472C11.678 16.5304 11.5126 16.6729 11.2982 16.6635C10.8132 16.6654 10.3275 16.6704 9.84254 16.661C9.47928 16.6547 9.16896 16.3379 9.17624 15.9979C9.16896 15.6579 9.47994 15.3411 9.84254 15.3348C10.3805 15.3211 10.9191 15.3373 11.457 15.3323C11.3068 14.6736 11.2526 13.9974 11.3498 13.3281C10.8456 13.325 10.3414 13.3431 9.83857 13.3256C9.52824 13.3175 9.24704 13.0881 9.19145 12.8006C9.08625 12.3981 9.46208 11.9744 9.89944 11.9988C10.4897 12.005 11.0838 11.9644 11.6694 12.0488C12.3311 10.1739 14.0441 8.67212 16.0741 8.1909C17.2837 7.87905 18.5858 7.9578 19.761 8.36027C19.7663 7.79781 19.7683 7.23534 19.7603 6.6735C18.7255 6.65475 17.6893 6.67163 16.6544 6.66538C11.5774 6.671 6.49978 6.65538 1.42279 6.6735ZM17.148 9.35396C15.7572 9.4802 14.4464 10.2002 13.6366 11.2738C12.8095 12.3438 12.5091 13.7568 12.8326 15.0455C13.2237 16.7347 14.6979 18.1446 16.4824 18.5321C17.643 18.8052 18.9068 18.654 19.9615 18.1215C20.9619 17.6228 21.7698 16.7885 22.2039 15.8017C22.7365 14.6199 22.7133 13.2281 22.143 12.0625C21.7109 11.1613 20.9639 10.3995 20.0481 9.91892C19.1727 9.45645 18.1458 9.25771 17.148 9.35396Z" fill="#23BEEC"/>
<path d="M4.70003 8.70586C5.03815 8.62587 5.39214 8.68024 5.73687 8.66524C6.03264 8.67586 6.34097 8.62712 6.62682 8.71711C6.94243 8.83085 7.12505 9.18021 7.04234 9.48706C6.97022 9.78517 6.66255 10.0108 6.33833 9.99765C5.87185 10.0002 5.40471 10.0014 4.93823 9.99641C4.57696 10.0058 4.2501 9.7083 4.23687 9.36894C4.21437 9.08334 4.41221 8.79773 4.70003 8.70586Z" fill="#23BEEC"/>
<path d="M9.66124 8.69963C10.0457 8.62588 10.4427 8.68275 10.8324 8.66463C11.1526 8.67088 11.5338 8.60963 11.7819 8.84962C12.0975 9.1071 12.0638 9.62206 11.7323 9.8533C11.5007 10.0414 11.1778 9.99454 10.8972 10.0002C10.5426 9.99204 10.1886 10.0083 9.8346 9.99391C9.44421 9.98516 9.12396 9.61519 9.18153 9.25271C9.20998 9.00086 9.40517 8.774 9.66124 8.69963Z" fill="#23BEEC"/>
<path d="M17.4041 10.7051C17.8117 10.5489 18.3225 10.8407 18.3457 11.2601C18.3662 12.0269 18.3457 12.7956 18.3529 13.5637C18.3483 13.6531 18.3688 13.7468 18.4456 13.8074C18.7943 14.1437 19.1529 14.4718 19.5049 14.8055C19.6333 14.9261 19.7438 15.0761 19.7603 15.2523C19.8119 15.5786 19.5618 15.9104 19.2237 15.9817C18.9762 16.041 18.7096 15.9548 18.5356 15.7829C18.083 15.3567 17.6324 14.928 17.1798 14.5018C17.0137 14.3586 16.9277 14.1505 16.9403 13.9399C16.9416 13.0837 16.9396 12.2275 16.9409 11.372C16.9231 11.0845 17.1136 10.7995 17.4041 10.7051Z" fill="#23BEEC"/>
<path d="M4.76422 12.0207C5.28562 11.9694 5.81429 12.01 6.33834 11.9988C6.72806 11.98 7.08404 12.315 7.06022 12.6837C7.05823 13.0175 6.75519 13.3181 6.39987 13.3256C5.91421 13.3387 5.42722 13.3312 4.94089 13.3293C4.573 13.3393 4.23621 13.0343 4.23555 12.6869C4.22033 12.3844 4.4539 12.0925 4.76422 12.0207Z" fill="#23BEEC"/>
<path d="M4.77283 15.3517C5.29026 15.3042 5.8143 15.3411 6.33503 15.3317C6.7188 15.3117 7.06949 15.636 7.06089 15.9979C7.06949 16.3379 6.75784 16.6547 6.39525 16.661C5.9109 16.6697 5.42524 16.666 4.9409 16.6635C4.60543 16.6703 4.29511 16.4191 4.24482 16.1073C4.17865 15.776 4.42546 15.4242 4.77283 15.3517Z" fill="#23BEEC"/>
</svg>
