<svg width="15" height="11" viewBox="0 0 15 11" fill="none" xmlns="http://www.w3.org/2000/svg">
<path d="M13.2417 0.0975081C13.755 -0.122438 14.4103 0.0406256 14.7419 0.476725C15.038 0.844566 15.0854 1.37926 14.8525 1.78502C14.7419 1.98601 14.5564 2.1377 14.3945 2.29697C11.4967 5.07663 8.60288 7.85629 5.70509 10.636C5.50374 10.8331 5.23133 10.9659 4.93919 10.9924C4.56808 11.0341 4.18118 10.9014 3.91667 10.6511C2.74018 9.52106 1.55974 8.3872 0.383257 7.25713C0.118744 7.00684 -0.0273299 6.64659 0.00425369 6.29392C0.0358373 5.8161 0.399048 5.38 0.872802 5.2359C1.29128 5.10318 1.78478 5.19798 2.10851 5.48998C3.01259 6.34701 3.90482 7.21921 4.81285 8.06865C7.39086 5.60753 9.95703 3.13125 12.5311 0.662542C12.7522 0.453972 12.9496 0.211273 13.2417 0.0975081Z" fill="#23BEEC"/>
</svg>
