<svg width="111" height="109" viewBox="0 0 111 109" fill="none" xmlns="http://www.w3.org/2000/svg">
<path d="M95.6863 77.1029C95.8271 80.5958 93.1011 84.208 89.8604 85.4446L49.3349 101.015C46.0942 102.251 41.788 100.771 39.604 98.0423L12.989 64.4945C10.8232 61.8185 9.98646 57.486 11.9376 54.5696L35.6792 17.8859C37.5775 14.9877 42.2462 13.5534 45.5791 14.469L87.5755 26.0892C90.9084 27.0048 94.1431 30.5686 94.284 34.0616L95.6863 77.1029Z" fill="#AACF38"/>
<path d="M53.5957 29H56.3076C56.707 29.0859 57.1094 29.1787 57.4863 29.3428C58.5596 29.8008 59.416 30.7324 59.7842 31.8398C60.0625 32.5859 59.9922 33.3955 60.0039 34.1758C59.9785 35.2041 60.1045 36.2695 59.7402 37.2568C59.165 39.0264 57.5264 40.3828 55.6816 40.6221C54.3564 40.8066 52.9658 40.4355 51.9189 39.6016C50.7412 38.6904 50.0078 37.2275 50.002 35.7363C49.9941 34.8584 49.9922 33.9795 50.0029 33.1016C50.0078 31.6953 50.7969 30.3311 52 29.6094C52.4863 29.3018 53.0449 29.1455 53.5957 29ZM53.7637 30.7021C52.6445 30.8604 51.7275 31.8691 51.6758 32.998C51.6533 33.9121 51.666 34.8271 51.6699 35.7422C51.6797 36.9395 52.4062 38.0918 53.4736 38.6289C54.6406 39.25 56.1719 39.0732 57.166 38.2002C57.876 37.5918 58.3271 36.6797 58.3291 35.7402C58.3408 34.8594 58.3369 33.9785 58.3301 33.0986C58.3174 32.1221 57.6699 31.2021 56.7646 30.8447C56.2383 30.6182 55.6553 30.6719 55.0977 30.6631C54.6533 30.668 54.2051 30.6357 53.7637 30.7021Z" fill="white"/>
<path d="M46.2568 40.6836C47.0977 40.6533 47.9434 40.6436 48.7842 40.6895C50.3223 40.8389 51.7129 41.9307 52.2383 43.3828C52.582 44.209 52.4883 45.1201 52.499 45.9922C52.4795 46.8057 52.5674 47.6318 52.377 48.4316C52.0703 49.8437 51.1113 51.0947 49.8271 51.7578C48.5439 52.4453 46.9551 52.5244 45.6113 51.9609C44.1924 51.3906 43.0703 50.1309 42.6787 48.6523C42.4199 47.7881 42.5215 46.8789 42.498 45.9922C42.5166 45.1543 42.4189 44.2861 42.7227 43.4854C43.2324 41.9756 44.665 40.8232 46.2568 40.6836ZM46.0459 42.4121C45.0068 42.666 44.208 43.6455 44.1689 44.7148C44.1543 45.5303 44.1729 46.3477 44.1611 47.1641C44.1357 48.0254 44.4229 48.8994 45.0049 49.542C45.8613 50.5371 47.3301 50.9238 48.5684 50.4932C49.7236 50.1113 50.6211 49.0498 50.7949 47.8447C50.8701 46.7734 50.8271 45.6963 50.8223 44.623C50.7559 43.6582 50.0674 42.7842 49.1553 42.4697C48.6182 42.2764 48.0391 42.3496 47.4814 42.3359C47.0029 42.3437 46.5146 42.293 46.0459 42.4121Z" fill="white"/>
<path d="M61.1963 40.6875C61.5381 40.6504 61.8828 40.665 62.2266 40.6641C63.0234 40.6729 63.8457 40.5947 64.6123 40.8672C66.2217 41.3691 67.4326 42.9307 67.4941 44.6182C67.5078 45.5322 67.5 46.4463 67.499 47.3604C67.5049 48.6865 66.9336 49.998 65.9814 50.918C64.9287 51.9502 63.4033 52.4814 61.9375 52.3037C60.0654 52.1104 58.3809 50.7598 57.7773 48.9795C57.4102 48.0264 57.5029 46.9902 57.4941 45.9922C57.5078 45.1709 57.415 44.3223 57.708 43.5352C58.1914 42.0156 59.6113 40.8594 61.1963 40.6875ZM60.9922 42.4229C60.2314 42.6377 59.5859 43.2266 59.3193 43.9717C59.1201 44.4912 59.1729 45.0576 59.166 45.6016C59.1748 46.2529 59.1533 46.9033 59.1758 47.5547C59.2383 48.7939 60.0752 49.9473 61.2227 50.4121C62.3027 50.8721 63.6201 50.6963 64.542 49.9688C65.2588 49.416 65.7354 48.5615 65.8174 47.6592C65.8652 47.0068 65.8203 46.3535 65.835 45.7002C65.8301 45.1328 65.8936 44.542 65.6875 43.999C65.3545 43.0117 64.3447 42.3018 63.2988 42.3359C62.5313 42.3623 61.748 42.2598 60.9922 42.4229Z" fill="white"/>
<path d="M38.5313 52.3818C38.9727 52.3174 39.4199 52.3398 39.8643 52.333C40.6367 52.3457 41.4385 52.2695 42.1758 52.5586C43.6455 53.0361 44.7656 54.4053 44.9629 55.9355C45.0498 56.8818 44.9756 57.835 45.0029 58.7852C45.0547 60.1475 44.5391 61.5283 43.5723 62.4951C42.5068 63.6084 40.8975 64.1621 39.3721 63.96C38.29 63.8281 37.2578 63.3242 36.4863 62.5537C35.54 61.627 34.9854 60.3086 35.001 58.9824C35.0117 58.0361 34.9805 57.0898 35.0156 56.1445C35.1396 54.2803 36.6826 52.6338 38.5313 52.3818ZM38.7227 54.0381C37.5918 54.2285 36.6748 55.2832 36.6689 56.4346C36.6758 57.3789 36.6514 58.3242 36.6797 59.2676C36.7734 60.8975 38.2295 62.3027 39.8633 62.3291C41.5889 62.4453 43.2324 60.999 43.3193 59.2695C43.3398 58.3281 43.3271 57.3857 43.3271 56.4453C43.3311 55.457 42.6641 54.5234 41.7471 54.1719C41.2139 53.9414 40.623 54.0068 40.0586 54.002C39.6133 54.0098 39.165 53.9678 38.7227 54.0381Z" fill="white"/>
<path d="M53.3809 52.4023C53.8496 52.3125 54.3301 52.3408 54.8047 52.3369C55.5098 52.3389 56.2295 52.2852 56.917 52.4766C58.6045 52.9082 59.918 54.5029 59.9902 56.2471C60.0166 57.1572 59.998 58.0684 60 58.9785C60.0166 60.2695 59.4912 61.5518 58.5908 62.4736C57.5557 63.5615 56.0068 64.1357 54.5127 63.9746C52.5674 63.8145 50.8115 62.3848 50.2383 60.5234C49.9189 59.6201 50.0137 58.6504 49.9961 57.7109C50.0176 56.8652 49.917 55.9893 50.2158 55.1787C50.6729 53.7725 51.9316 52.6797 53.3809 52.4023ZM53.8574 54.0244C53.0049 54.1162 52.2295 54.6914 51.8867 55.4756C51.5723 56.1436 51.6846 56.9004 51.665 57.6143C51.6963 58.4834 51.5498 59.3965 51.8984 60.2227C52.3223 61.3105 53.3525 62.1338 54.5088 62.2998C55.2178 62.3965 55.9619 62.2744 56.5918 61.9287C57.5342 61.418 58.2129 60.4326 58.3086 59.3594C58.3623 58.6816 58.3242 58 58.334 57.3203C58.3262 56.752 58.3906 56.1592 58.1709 55.6201C57.835 54.6826 56.8818 54.0039 55.8848 54.0039C55.209 54.0088 54.5313 53.9707 53.8574 54.0244Z" fill="white"/>
<path d="M68.418 52.3994C69.1465 52.2764 69.8887 52.3604 70.624 52.335C71.5352 52.2979 72.4609 52.5459 73.2061 53.0781C74.3262 53.8408 75.0225 55.1797 74.999 56.5352C74.9795 57.5635 75.0391 58.5947 74.9629 59.6201C74.7793 61.1943 73.7822 62.6406 72.3896 63.3906C71.2354 64.0332 69.8164 64.1738 68.5566 63.7842C67.1592 63.375 65.9756 62.3105 65.4062 60.9717C65.001 60.1064 64.9707 59.1367 64.998 58.1992C65.0371 57.1797 64.8701 56.123 65.2285 55.1426C65.6963 53.7393 66.9619 52.6553 68.418 52.3994ZM68.7051 54.041C67.6104 54.2314 66.7119 55.2305 66.6768 56.3467C66.665 57.2881 66.668 58.2305 66.6758 59.1719C66.7139 60.6973 67.9541 62.0635 69.4561 62.2891C70.9434 62.5625 72.5361 61.6748 73.0811 60.2646C73.4561 59.4297 73.3008 58.499 73.3311 57.6143C73.3105 56.9092 73.4326 56.165 73.126 55.5029C72.7441 54.6055 71.8047 53.9834 70.8262 54C70.1201 54.0127 69.4082 53.9619 68.7051 54.041Z" fill="white"/>
<path d="M32.5439 66.6133C33.9893 65.8867 35.6338 65.7139 37.2295 65.6807C37.5713 65.667 37.9883 65.7021 38.1807 66.0313C38.4072 66.4658 38.4883 66.959 38.6436 67.4209C39.1064 68.9043 39.5068 70.4082 40.0098 71.8789C40.5898 70.0205 41.126 68.1475 41.7002 66.2871C41.7969 65.9365 42.1279 65.6777 42.4951 65.6855C43.1084 65.6768 43.7256 65.6924 44.334 65.7734C44.9375 65.8652 45.2236 66.6943 44.7988 67.1387C44.3672 67.6172 43.6621 67.3291 43.1055 67.3672C42.4326 69.6582 41.7334 71.9414 41.0527 74.2295C40.9463 74.5732 40.876 74.9336 40.7109 75.2568C40.4961 75.6699 39.9053 75.792 39.5322 75.5244C39.2773 75.3555 39.1924 75.0439 39.1045 74.7705C38.3818 72.3057 37.6162 69.8525 36.9023 67.3848C36.1152 67.3506 35.3291 67.4678 34.5645 67.6465C33.7402 67.8516 32.8994 68.1758 32.3174 68.8213C31.8535 69.3252 31.6641 70.0205 31.6641 70.6934C31.6602 72.6172 31.6699 74.542 31.6621 76.4658C31.6963 76.9727 31.2051 77.4189 30.7031 77.3232C30.3662 77.2959 30.168 76.998 30 76.7422V69.9883C30.1367 69.501 30.2568 69.0029 30.4951 68.5527C30.9307 67.6953 31.6963 67.0439 32.5439 66.6133Z" fill="white"/>
<path d="M49.9434 65.8701C50.8096 65.748 51.6865 65.6582 52.5615 65.6904C52.9619 65.6924 53.2539 66.0312 53.3389 66.3984C53.874 68.207 54.4336 70.0088 54.9551 71.8213C54.9775 71.8193 55.0225 71.8145 55.0449 71.8125C55.5459 70.0811 56.083 68.3604 56.5879 66.6299C56.6846 66.3359 56.7598 65.9863 57.0488 65.8193C57.4336 65.6016 57.8955 65.6953 58.3164 65.6973C60.0576 65.7803 61.8994 66.082 63.3232 67.1621C64.3984 67.9502 65.0107 69.2793 64.999 70.6035C64.999 73.1104 65.002 75.6182 64.9971 78.125C65.0264 78.5127 64.7432 78.8066 64.4404 79H63.918C63.5947 78.8223 63.3057 78.5176 63.334 78.123C63.3271 75.6162 63.3379 73.1084 63.3301 70.6016C63.3418 69.707 62.8926 68.8281 62.1328 68.3477C60.9492 67.5869 59.499 67.4092 58.123 67.3584C57.3398 69.9102 56.5859 72.4727 55.8105 75.0273C55.7236 75.3623 55.4336 75.6367 55.082 75.6602C54.6758 75.709 54.2861 75.4189 54.1875 75.0283C53.4121 72.4727 52.6621 69.9102 51.875 67.3574C50.8711 67.3779 49.8643 67.5176 48.9092 67.835C48.1328 68.1084 47.3604 68.5674 46.9727 69.3223C46.6953 69.8311 46.6553 70.4238 46.665 70.9922C46.668 73.3691 46.6699 75.7471 46.665 78.124C46.6953 78.5186 46.4063 78.8213 46.085 79H45.5625C45.2588 78.8076 44.9707 78.5146 45.0029 78.125C44.9961 75.6182 45.0029 73.1113 45.001 70.6045C45 69.4004 45.4873 68.1777 46.4062 67.3818C47.3867 66.5137 48.6748 66.0918 49.9434 65.8701Z" fill="white"/>
<path d="M65.2129 66.0713C65.4424 65.75 65.8682 65.7422 66.2236 65.7207C66.7109 65.707 67.2021 65.6455 67.6885 65.7051C68.0869 65.7656 68.2813 66.1592 68.374 66.5088C68.9063 68.3018 69.4404 70.0947 69.9893 71.8828C70.6182 70.0137 71.1201 68.1016 71.7246 66.2236C71.8398 65.8691 72.2158 65.6748 72.5742 65.6836C73.4385 65.6709 74.3037 65.752 75.1572 65.8867C76.5557 66.1367 77.9853 66.6582 78.9541 67.7432C79.5244 68.3652 79.8008 69.1807 80 69.9854V76.7412C79.832 76.998 79.6348 77.2969 79.2969 77.3242C78.7949 77.4189 78.3027 76.9727 78.3369 76.4658C78.3311 74.5752 78.3389 72.6836 78.3359 70.793C78.3398 70.2246 78.2461 69.6367 77.9307 69.1543C77.4658 68.4072 76.6309 67.999 75.8174 67.748C74.9346 67.5029 74.0176 67.3516 73.0996 67.3809C72.3896 69.8242 71.6348 72.2539 70.917 74.6943C70.833 74.9521 70.7705 75.2354 70.5752 75.4355C70.29 75.7354 69.7744 75.7354 69.4629 75.4766C69.2725 75.3145 69.2002 75.0645 69.126 74.8359C68.3896 72.3447 67.624 69.8633 66.8945 67.3701C66.4834 67.3691 66.0684 67.4414 65.6602 67.3809C65.0977 67.2627 64.8574 66.5098 65.2129 66.0713Z" fill="white"/>
</svg>
