<svg width="111" height="109" viewBox="0 0 111 109" fill="none" xmlns="http://www.w3.org/2000/svg">
<path d="M95.6863 77.1027C95.8271 80.5957 93.1011 84.2079 89.8604 85.4445L49.3349 101.015C46.0942 102.251 41.788 100.771 39.604 98.0422L12.989 64.4944C10.8232 61.8184 9.98646 57.4859 11.9376 54.5695L35.6792 17.8858C37.5775 14.9876 42.2462 13.5533 45.5791 14.4689L87.5755 26.0891C90.9083 27.0047 94.1431 30.5685 94.284 34.0615L95.6863 77.1027Z" fill="#23BEEC"/>
<path d="M48.8474 32.0645C50.2993 31.8851 51.8028 32.0954 53.1365 32.7016C53.5133 32.8783 53.6632 33.4041 53.4246 33.747C53.2548 34.0337 52.8684 34.1594 52.5591 34.0419C52.2057 33.9182 51.864 33.756 51.4935 33.6838C49.5232 33.145 47.3267 33.6515 45.7427 34.9278C44.4248 35.9753 43.54 37.5492 43.3262 39.218C43.1791 40.3129 43.3338 41.4263 43.6459 42.4793C44.3905 44.9254 45.7792 47.1269 47.4044 49.0822C49.5307 51.6067 52.126 53.7319 55.0003 55.3505C56.6757 54.4144 58.2466 53.2913 59.6944 52.0322C61.774 50.2156 63.5965 48.0863 64.9687 45.6849C65.3888 44.9151 65.782 44.1268 66.0735 43.2979C66.5025 42.1782 66.7768 40.9803 66.7225 39.7747C66.664 38.3926 66.1498 37.0324 65.2801 35.9567C64.0372 34.3739 62.0284 33.4329 60.0182 33.4742C57.6244 33.4962 55.3042 34.9436 54.2454 37.0935C54.1382 37.3286 53.9925 37.5795 53.7353 37.6716C53.4995 37.697 53.2135 37.7389 53.0307 37.5513C52.7337 37.3348 52.6746 36.9004 52.8554 36.5918C53.8776 34.4433 55.8968 32.7992 58.2122 32.2446C60.8934 31.5339 63.8921 32.4102 65.8308 34.3759C66.7321 35.2749 67.4161 36.3911 67.8066 37.6022C68.1992 38.6908 68.226 39.8668 68.1469 41.0084C67.9503 42.6882 67.3426 44.2917 66.5733 45.788C65.3764 48.1283 63.7278 50.2191 61.851 52.0514C60.0773 53.7841 58.0816 55.29 55.927 56.5189C55.6864 56.6522 55.454 56.8021 55.201 56.91C54.9563 56.9684 54.7095 56.9038 54.5053 56.765C52.3762 55.5849 50.3825 54.1553 48.6074 52.4885C47.2497 51.2218 46.0081 49.828 44.9453 48.3035C43.6315 46.4038 42.5411 44.3103 42.0235 42.0477C41.8165 41.1438 41.7897 40.2125 41.8406 39.2902C42.084 36.5691 43.8343 34.0426 46.2934 32.8508C47.0936 32.4508 47.9605 32.1862 48.8474 32.0645Z" fill="white"/>
<path d="M61.4055 35.2103C61.5114 35.1876 61.6221 35.1876 61.73 35.1986C63.0122 35.6069 64.1107 36.5499 64.7109 37.7554C64.8697 38.1004 65.1097 38.4826 64.9653 38.8737C64.8182 39.2792 64.2854 39.4606 63.9189 39.2393C63.7374 39.1458 63.6268 38.9658 63.5649 38.7781C63.2053 37.8283 62.4416 37.0392 61.4935 36.6688C61.2433 36.5794 60.9827 36.4282 60.9064 36.1547C60.7641 35.7657 61.0198 35.3285 61.4055 35.2103Z" fill="white"/>
<path d="M35.4216 45.2423C35.8905 45.2216 36.3793 45.1777 36.8282 45.344C37.999 45.7014 38.87 46.8629 38.868 48.0898C38.868 50.0383 38.8686 51.9868 38.8673 53.9353C38.8824 54.3456 38.5002 54.7195 38.0863 54.6687C37.6704 54.6673 37.3823 54.2584 37.3844 53.8687C37.3823 51.9414 37.3851 50.0149 37.3837 48.0877C37.4098 47.6953 37.2036 47.3172 36.9224 47.0561C36.479 46.6265 35.7509 46.5571 35.2188 46.8574C34.7348 47.1172 34.431 47.6774 34.4674 48.2238C34.4708 51.9153 34.466 55.6062 34.4702 59.2977C34.5025 60.3156 34.8531 61.3493 35.5468 62.1088C37.5061 64.0676 39.4647 66.0271 41.4261 67.9839C41.611 68.155 41.8159 68.364 41.7801 68.6396C41.8269 68.9585 41.5979 69.2602 41.3051 69.3626C41.1387 69.3881 40.9641 69.3929 40.7998 69.3537C40.5921 69.2568 40.4492 69.0712 40.2869 68.9166C38.4658 67.0945 36.6433 65.2731 34.8215 63.4518C33.6129 62.3576 32.9708 60.7046 33.001 59.0867C33.0017 55.4206 33.0003 51.7545 33.0017 48.0891C32.9928 47.4306 33.2588 46.7887 33.6637 46.2773C34.1024 45.7378 34.7417 45.3742 35.4216 45.2423Z" fill="white"/>
<path d="M73.5099 45.2512C73.8681 45.21 74.2325 45.2182 74.592 45.2443C75.3462 45.3962 76.0529 45.8292 76.4819 46.4746C76.7988 46.9482 77.0058 47.5111 76.9989 48.0856C77.0003 51.7758 76.9996 55.466 76.9996 59.1561C77.0147 60.385 76.6249 61.6105 75.9182 62.6153C75.6432 63.0401 75.2513 63.3659 74.9021 63.726C73.0796 65.5467 71.2598 67.3708 69.4359 69.1908C69.2304 69.4183 68.8729 69.4286 68.6062 69.3241C68.1552 69.1193 68.0747 68.443 68.437 68.122C70.2609 66.302 72.0814 64.4793 73.9039 62.6579C74.185 62.3672 74.4992 62.1033 74.7295 61.7672C75.2238 61.0682 75.494 60.2159 75.5297 59.3644C75.5339 55.6282 75.5298 51.8913 75.5311 48.1551C75.5765 47.3042 74.7433 46.555 73.9004 46.6822C73.182 46.742 72.5523 47.4272 72.6155 48.1571C72.619 50.061 72.6162 51.9648 72.6169 53.868C72.6279 54.2838 72.2794 54.7072 71.8428 54.6694C71.4544 54.6804 71.1189 54.3175 71.132 53.9353C71.1326 52.1469 71.1326 50.3593 71.1326 48.5709C71.1299 48.1688 71.1189 47.7592 71.2316 47.3688C71.5149 46.3096 72.432 45.4553 73.5099 45.2512Z" fill="white"/>
<path d="M39.6207 55.5691C40.1845 55.4983 40.7805 55.4955 41.3099 55.7326C41.712 55.8907 42.0613 56.1581 42.3652 56.4612C44.0117 58.1121 45.6637 59.7589 47.3116 61.4091C48.2513 62.2682 48.8474 63.4697 49.0571 64.7185C49.1574 65.2642 49.1299 65.8202 49.1334 66.3721C49.1327 67.3791 49.1347 68.386 49.1327 69.3929C49.1519 69.7833 48.7924 70.1475 48.4005 70.1283C48.0121 70.1523 47.6519 69.7853 47.6773 69.3984C47.6745 68.1131 47.68 66.8271 47.6745 65.5412C47.612 64.502 47.2531 63.4463 46.5175 62.6882C44.7631 60.9362 43.01 59.1822 41.2563 57.4303C40.9696 57.1368 40.5591 56.9574 40.1467 56.9863C39.6634 56.9822 39.2323 57.3217 39.0261 57.7437C38.8845 58.0021 38.9257 58.3107 38.9456 58.5932C39.0178 58.8839 39.1863 59.1479 39.3959 59.3602C40.6121 60.5726 41.8241 61.7892 43.0403 63.0023C43.1881 63.1418 43.2761 63.3432 43.274 63.5473C43.2671 63.9968 42.7769 64.3879 42.3377 64.2401C42.1238 64.1893 41.9815 64.0119 41.833 63.8655C40.6657 62.6957 39.4956 61.5287 38.3276 60.3596C37.6814 59.7176 37.3273 58.7705 37.4731 57.8619C37.6319 56.754 38.5311 55.8103 39.6207 55.5691Z" fill="white"/>
<path d="M69.1836 55.5745C69.515 55.5099 69.8581 55.5333 70.1949 55.5436C71.1876 55.6763 72.0552 56.411 72.3962 57.3464C72.7778 58.3643 72.4643 59.5637 71.7074 60.3266C70.472 61.5644 69.2325 62.7995 67.9964 64.0374C67.7956 64.2559 67.4588 64.337 67.1858 64.2113C66.7534 64.0346 66.5657 63.4318 66.8971 63.0744C68.1559 61.7926 69.4415 60.5355 70.7023 59.2558C71.0453 58.8901 71.1546 58.3623 71.0343 57.8825C70.8824 57.4853 70.5559 57.1444 70.1434 57.0227C69.6463 56.8976 69.0963 57.0578 68.7443 57.4303C66.9789 59.1939 65.2148 60.9596 63.4501 62.7232C62.7379 63.4813 62.3866 64.5199 62.3254 65.5446C62.3219 66.8058 62.324 68.0677 62.3247 69.3296C62.3446 69.5441 62.2807 69.7647 62.1198 69.9138C61.8586 70.2066 61.3443 70.2025 61.0824 69.9125C60.938 69.7805 60.8597 69.5867 60.8672 69.3922C60.8659 68.1784 60.8672 66.9646 60.8672 65.7515C60.8445 64.2841 61.3904 62.8091 62.3783 61.7232C64.1541 59.9472 65.9284 58.1705 67.7049 56.3959C68.1077 55.989 68.6254 55.7031 69.1836 55.5745Z" fill="white"/>
<path d="M37.3837 72.4163C37.3748 72.0253 37.6656 71.5819 38.0932 71.6129C42.0317 71.6122 45.9703 71.6122 49.9088 71.6129C50.3358 71.5799 50.6266 72.0246 50.6176 72.4143C50.6176 73.3119 50.6169 74.2095 50.6183 75.1071C50.6279 75.426 50.498 75.7807 50.1921 75.9243C49.7631 76.1518 49.1822 75.8384 49.1402 75.3553C49.1224 74.593 49.1375 73.8294 49.1334 73.0672C45.7111 73.0713 42.2888 73.0686 38.8666 73.0686C38.8673 73.8164 38.8728 74.5635 38.8645 75.3113C38.8515 75.7223 38.4376 76.0618 38.0306 75.9896C37.658 75.9546 37.4016 75.5979 37.3906 75.2405C37.3748 74.2989 37.3899 73.3573 37.3837 72.4163Z" fill="white"/>
<path d="M59.383 72.415C59.3754 72.0246 59.6641 71.5819 60.0924 71.6136C64.031 71.6122 67.9696 71.6122 71.9074 71.6129C72.3117 71.5806 72.597 71.9806 72.6135 72.351C72.6238 73.2686 72.6114 74.1868 72.6183 75.1051C72.6272 75.4247 72.4973 75.78 72.1907 75.9237C71.7631 76.1525 71.1808 75.8384 71.1395 75.3546C71.1203 74.593 71.1381 73.8301 71.1326 73.0679C67.7104 73.07 64.2881 73.0693 60.8659 73.0686C60.8652 73.8164 60.8734 74.5635 60.8638 75.3113C60.8507 75.723 60.4362 76.0625 60.0292 75.9896C59.6318 75.9518 59.3775 75.5518 59.3837 75.1759C59.3816 74.2556 59.3837 73.3353 59.383 72.415Z" fill="white"/>
</svg>
