<svg width="163" height="164" viewBox="0 0 163 164" fill="none" xmlns="http://www.w3.org/2000/svg">
<path d="M85.3725 143.828C89.4938 146.031 95.4275 144.854 98.8024 141.674L141.133 101.973C144.508 98.7937 145.234 92.7501 143.222 88.5333L118.348 36.9745C116.389 32.8103 111.663 29.281 107.017 29.9309L49.0518 37.1422C44.4591 37.7391 40.015 42.522 39.1763 47.0657L28.7083 104.367C27.8696 108.91 30.2747 114.878 34.396 117.081L85.3725 143.828Z" fill="url(#paint0_linear)"/>
<path d="M87 57.9999C93.1841 57.3267 99.0883 60.0767 103 64.9999C105.305 67.9377 106.933 71.4389 108 74.9999C108.935 78.1914 109.671 81.6902 110 84.9999C110.063 85.7194 110.004 86.2767 110 86.9999C109.989 87.4633 109.467 88.0231 109 87.9999C107.548 88.0365 106.451 87.9926 105 87.9999C104.785 90.1707 103.743 91.5841 102 92.9999C101.705 93.2792 101.239 93.6767 101 93.9999C100.5 95.7048 99.8675 97.4487 99 98.9999C96.8063 102.893 93.1288 106.276 89 108C87.1085 108.772 85.0359 109.413 83 109C79.8952 108.385 77.3137 106.127 75 104C72.0141 101.257 70.1502 97.8938 69 93.9999C68.3145 93.5292 67.5023 93.678 67 92.9999C65.5501 91.0828 64.824 88.3816 65 85.9999C65.131 84.3536 65.7855 82.1609 67 80.9999C67.478 80.5243 68.3885 80.2633 69 79.9999C68.7513 79.7182 68.2669 79.2646 68 78.9999C65.9422 76.8597 64.3348 73.9621 64 70.9999C63.7197 68.4877 64.6205 66.1219 66 63.9999C67.0968 62.356 68.1837 60.8048 70 59.9999C72.1354 59.0316 74.7602 59.3231 77 59.9999C77.8748 60.2377 78.2089 60.5658 79 60.9999C80.934 59.2645 84.4593 58.2987 87 57.9999ZM74 78.9999C73.7064 79.278 73.2924 79.7219 73 79.9999C72.8847 80.3755 73.0509 80.6121 73 80.9999C72.7743 83.0231 73.2305 84.9767 73 86.9999C72.9939 87.3902 72.3628 88.1243 72 87.9999C71.6918 87.9194 71.0679 87.2646 71 86.9999C70.7233 85.8377 71.2669 84.1646 71 82.9999C70.5329 82.995 69.3336 83.6658 69 83.9999C68.5159 84.4768 69.074 85.3414 69 85.9999C68.8835 87.2536 68.5365 87.8353 69 88.9999C69.2681 89.6146 69.4576 90.5816 70 90.9999C70.3894 91.3048 71.5389 90.9194 72 90.9999C72.2693 92.0426 72.6287 92.9865 73 93.9999C73.9075 96.5816 74.9932 99.1341 77 101C77.148 100.043 77.5486 99.8682 78 98.9999C78.3591 98.278 78.1737 97.1292 79 96.9999C80.0349 96.8426 81.9966 96.7865 83 96.9999C84.166 97.2646 84.8219 98.2304 86 97.9999C87.007 97.8182 88.0099 97.245 89 96.9999C89.8978 96.7658 91.4176 96.2767 92 96.9999C92.9075 98.1011 92.7816 99.6219 93 101C94.2921 99.7511 95.1871 98.6097 96 96.9999C96.9925 95.1767 97.4637 92.9902 98 90.9999C98.7219 90.9182 99.5001 90.5707 100 89.9999C100.74 89.1609 100.857 88.0743 101 86.9999C99.9274 86.7816 99.0725 87.2304 98 86.9999C93.512 86.178 88.7976 84.5743 85 81.9999C84.568 81.7219 84.4477 81.2536 84 80.9999C84.3166 82.3755 85.403 83.7267 86 84.9999C86.2159 85.4914 85.8981 85.4646 86 85.9999C86.0582 86.6402 85.5484 87.2036 85 86.9999C83.3814 86.5255 81.4001 85.9463 80 84.9999C77.5916 83.3902 75.9209 80.7585 75 77.9999C74.6882 78.1475 74.256 78.7768 74 78.9999ZM86 99.9999C84.3742 100.297 82.6039 99.2938 81 98.9999C80.5535 98.9097 80.4562 98.9999 80 98.9999C79.3108 100.31 79.3921 102.622 80 104C81.132 104.772 81.6678 104.669 83 105C83.0339 104.055 83.0024 102.946 83 102C84.0216 101.971 84.9784 101.978 86 102C85.9927 102.946 85.9769 104.052 86 105C87.2897 104.7 88.8753 104.689 90 104C90.3166 103.823 89.9296 103.317 90 103C90.1431 101.661 90.7583 100.135 90 98.9999C88.8255 99.1524 87.1781 99.8499 86 99.9999Z" fill="white"/>
<path d="M79 86.9999C80.3795 86.7097 81.784 88.6024 82 89.9999C82.1747 90.9304 81.7389 91.4133 81 91.9999C80.2235 92.6377 78.893 92.467 78 91.9999C77.0063 91.5206 75.8253 91.095 76 89.9999C76.1371 88.8987 77.9129 87.1865 79 86.9999Z" fill="white"/>
<path d="M90 86.9999C91.2739 86.7219 92.6457 87.7438 93 88.9999C93.3312 90.0365 92.8735 91.3597 92 91.9999C91.2465 92.5743 90.8541 92.4109 90 91.9999C89.0463 91.5743 87.9284 91.0499 88 89.9999C88.0315 88.8121 88.8364 87.2024 90 86.9999Z" fill="white"/>
<defs>
<linearGradient id="paint0_linear" x1="44.1465" y1="37.8395" x2="118.831" y2="120.354" gradientUnits="userSpaceOnUse">
<stop stop-color="#FFA800"/>
<stop offset="1" stop-color="#FF5C00"/>
</linearGradient>
</defs>
</svg>
