<svg width="148" height="146" viewBox="0 0 148 146" fill="none" xmlns="http://www.w3.org/2000/svg">
<path d="M128.265 103.921C128.454 108.59 124.81 113.419 120.477 115.072L66.3037 135.886C61.9715 137.539 56.2151 135.56 53.2955 131.913L17.7171 87.0664C14.8218 83.4892 13.7033 77.6976 16.3115 73.7989L48.049 24.7609C50.5865 20.8866 56.8276 18.9693 61.2829 20.1932L117.423 35.7269C121.878 36.9508 126.203 41.7149 126.391 46.3842L128.265 103.921Z" fill="url(#paint0_linear)"/>
<path d="M73 44C73.7825 43.7036 74.5743 44.2936 75 45C75.4256 45.6412 75.4996 46.4215 75 47C74.688 47.3722 74.4097 47.7598 74 48C72.7839 48.6699 71.4785 49.6929 71 51C70.3946 52.6872 70.5506 54.2802 71 56C71.2498 57.046 70.1063 58.0131 69 58C68.0972 58.0471 68.189 57.8436 68 57C67.3668 54.5098 66.9425 51.3793 68 49C68.9741 46.7318 70.7132 44.9572 73 44Z" fill="white"/>
<path d="M58 53C59.6721 52.8407 61.5658 53.1173 63 54C64.2702 54.7705 65.38 55.6681 66 57C66.374 57.7809 66.7058 59.4738 66 60C65.3232 60.5119 63.6146 59.5824 63 59C62.6074 58.6501 63.2894 58.4205 63 58C62.4184 57.1003 61.068 57.1215 60 57C58.8487 56.8538 58.0786 56.6357 57 57C56.0496 57.3134 54.2273 56.9533 54 56C53.7753 55.1839 54.2069 54.3383 55 54C56.0455 53.5874 56.8791 53.1136 58 53Z" fill="white"/>
<path d="M74 57C74.2339 56.7741 74.647 55.9739 75 56C75.4216 55.9974 75.881 56.6187 76 57C76.8036 59.0763 77.191 60.925 78 63C78.1837 63.384 78.3516 64.7467 78 65C77.7515 65.2051 77.3013 65.0027 77 65C75.5843 64.9478 74.4156 65.0392 73 65C72.6814 64.9204 72.1586 64.8042 72 65C71.3734 65.9024 70.109 66.017 69 66C68.5545 65.9935 68.4322 66.0941 68 66C66.965 66.9873 66.0283 68.0063 65 69C64.7687 69.2103 64.3185 69.923 64 70C63.5572 70.1019 63.1414 69.4297 63 69C62.1725 66.8976 61.8235 65.1025 61 63C60.8162 62.6148 60.6457 62.2547 61 62C61.2485 61.7885 61.6946 61.9948 62 62C63.4117 62.0562 64.5883 61.9439 66 62C66.4851 61.0363 66.924 60.2756 68 60C68.8208 59.748 70.2227 59.6814 71 60C72.0429 59.0233 72.969 57.9899 74 57Z" fill="white"/>
<path d="M79 59C85.3711 59.8084 91.7258 63.5442 95 69C96.2359 71.0398 96.5651 73.6586 97 76C97.0502 76.2129 97.7343 76.9413 98 77C99.4381 77.5942 100.215 78.6642 101 80C102.159 81.9288 101.909 83.9446 101 86C100.235 87.7838 98.8545 89.3693 97 90C96.2241 90.2886 95.8208 89.9295 95 90C92.4264 94.3655 87.8365 98.3351 83 100C77.3122 102.008 71.315 100.836 66 98C62.4588 96.1379 58.9734 93.4579 57 90C55.0873 89.9073 53.331 89.396 52 88C50.3477 86.3377 49.5175 84.2722 50 82C50.3846 80.04 52.3133 78.0578 54 77C54.3529 76.7637 54.6391 76.222 55 76C55.1731 75.6566 54.9048 75.3696 55 75C55.7481 71.8216 56.8679 69.4916 59 67C59.5234 68.1152 60.573 68.8457 61 70C59.1203 72.6326 58.263 75.8046 58 79C56.6874 79.3017 54.8935 79.9253 54 81C52.7376 82.6075 53.4072 84.7268 55 86C55.8036 86.6634 56.9491 87.1502 58 87C58.4652 86.9308 58.5334 87.0627 59 87C60.0376 88.9327 61.4601 90.416 63 92C65.3872 94.5321 68.5765 96.2466 72 97C75.3772 97.7378 78.7073 98.0643 82 97C84.8181 96.0886 86.9842 94.1416 89 92C90.5029 90.4252 91.9729 88.9027 93 87C93.8023 87.0993 94.1884 87.1463 95 87C96.3733 86.782 98.503 86.2759 99 85C99.3555 84.1121 99.2749 82.9076 99 82C98.7356 81.1447 97.7904 80.4127 97 80C96.2346 79.5822 94.8406 79.2051 94 79C93.6999 75.6375 93.0276 72.741 91 70C89.0661 67.34 86.0534 65.2471 83 64C82.0826 63.5965 80.9305 63.3657 80 63C79.7991 62.7376 80.1242 62.3017 80 62C79.7039 61.1695 79.2709 59.8384 79 59Z" fill="white"/>
<path d="M70 78C71.446 77.778 72.9378 78.5492 73 80C73.1493 81.4117 71.4341 82.9791 70 83C68.5817 83.1084 67 81.4038 67 80C66.9233 78.7072 68.7099 78.158 70 78Z" fill="white"/>
<path d="M81 78C82.4936 77.5143 84.8625 78.4617 85 80C85.23 81.4783 83.5095 83.0379 82 83C80.6147 83.0484 78.996 81.3712 79 80C78.9352 78.8404 79.8725 78.3043 81 78Z" fill="white"/>
<path d="M70 88C70.1811 87.923 69.8334 87.923 70 88C72.0171 89.0108 74.7225 90.1724 77 90C78.4077 89.8655 79.7046 89.5589 81 89C81.4058 88.8329 81.5743 88.1202 82 88C82.3476 87.9752 83.1216 88.6775 83 89C82.532 90.8204 80.7157 92.1303 79 93C77.2486 93.8802 75.8439 94.6425 74 94C71.9168 93.274 69.5075 91.0855 69 89C68.9061 88.7441 69.7594 88.1084 70 88Z" fill="white"/>
<defs>
<linearGradient id="paint0_linear" x1="73.9063" y1="135.84" x2="68.4752" y2="19.0787" gradientUnits="userSpaceOnUse">
<stop stop-color="#FFED00"/>
<stop offset="1" stop-color="#3AAA35"/>
</linearGradient>
</defs>
</svg>
