<svg width="233" height="225" viewBox="0 0 233 225" fill="none" xmlns="http://www.w3.org/2000/svg">
<g filter="url(#filter0_d)">
<path d="M45 26.9998C48.4784 23.3566 53.9349 21.0176 59 20.9998C97.3486 20.9938 135.651 21.0057 174 20.9998C179.379 20.9402 184.435 23.011 188 26.9998C190.836 30.1157 192.629 34.8203 193 38.9998V113C192.516 117.286 191.018 121.884 188 125C184.441 128.7 179.164 131.065 174 131C157.765 131.009 141.238 131.009 125 131C123.145 131.068 122.218 131.102 121.158 131.286C119.226 131.62 116.761 132.591 115.121 133.664C114.221 134.253 113.713 134.693 112.696 135.574C106.783 140.695 100.891 145.862 95 151C91.0794 154.431 87.9146 157.559 84 161C82.969 161.879 81.3298 163.565 80 164C78.5567 164.533 77.3119 163.989 76 163C74.5417 162.172 72.9163 160.725 73 159C72.9836 154.231 72.9888 149.615 72.9955 145C73.0068 137.257 66.7425 131.029 59 131C53.9887 131.03 49.5202 128.554 46 125C42.7996 121.863 40.4961 117.426 40 113V38.9998C40.3765 34.5999 41.9071 30.1723 45 26.9998Z" fill="white"/>
</g>
<defs>
<filter id="filter0_d" x="0" y="0.998047" width="233" height="223.21" filterUnits="userSpaceOnUse" color-interpolation-filters="sRGB">
<feFlood flood-opacity="0" result="BackgroundImageFix"/>
<feColorMatrix in="SourceAlpha" type="matrix" values="0 0 0 0 0 0 0 0 0 0 0 0 0 0 0 0 0 0 127 0"/>
<feOffset dy="20"/>
<feGaussianBlur stdDeviation="20"/>
<feColorMatrix type="matrix" values="0 0 0 0 0.6125 0 0 0 0 0.6125 0 0 0 0 0.6125 0 0 0 0.2 0"/>
<feBlend mode="normal" in2="BackgroundImageFix" result="effect1_dropShadow"/>
<feBlend mode="normal" in="SourceGraphic" in2="effect1_dropShadow" result="shape"/>
</filter>
</defs>
</svg>
