<svg width="17" height="17" viewBox="0 0 17 17" fill="none" xmlns="http://www.w3.org/2000/svg">
<path d="M3.92655 0.0619063C4.27188 -0.0650279 4.64767 0.0212873 4.97269 0.158376C5.19613 0.254846 5.42466 0.407167 5.50591 0.645803C5.93757 1.89484 6.38954 3.13879 6.74502 4.41321C6.8923 4.80417 6.85167 5.2459 6.69932 5.63178C6.63838 5.78918 6.53173 5.93642 6.38446 6.02273C5.94265 6.30707 5.49068 6.58632 5.04886 6.87573C4.80002 7.09406 4.88128 7.49517 5.04886 7.73888C5.59732 8.53095 6.24227 9.25194 6.89737 9.94754C7.57787 10.6431 8.32439 11.2778 9.10645 11.8516C9.34513 12.0242 9.64983 12.1257 9.93929 12.0699C10.0663 12.0496 10.1475 11.9379 10.2135 11.8363C10.4522 11.4504 10.701 11.0696 10.9397 10.6888C11.1835 10.2623 11.7269 10.1811 12.1738 10.1659C13.4941 10.4604 14.8145 10.8056 16.0536 11.354C16.2872 11.4606 16.5665 11.5317 16.7036 11.7652C16.9372 12.141 17.0743 12.6182 16.9575 13.0549C16.4751 14.3293 15.6981 15.492 14.6977 16.4212C14.4895 16.6243 14.2508 16.7918 14.0477 17C13.4433 16.9645 12.8339 16.9695 12.2347 16.8832C9.4924 16.5278 6.92784 15.2178 4.88128 13.3849C2.70267 11.4301 1.01159 8.86606 0.326014 6.00242C0.102567 5.05803 -0.00407797 4.07303 0.00100036 3.09309C-0.0142346 2.93062 0.148272 2.83415 0.234604 2.71737C1.20964 1.53434 2.49446 0.610262 3.92655 0.0619063ZM4.19062 0.737196C3.09878 1.14846 2.11359 1.82883 1.30105 2.66152C1.12331 2.8443 0.930335 3.02201 0.803377 3.25049C0.767828 3.60591 0.808455 3.96132 0.833847 4.31674C1.0319 6.368 1.81904 8.33294 2.96167 10.0389C4.02304 11.6129 5.38911 12.994 6.96847 14.0551C8.93886 15.3854 11.2749 16.2282 13.6668 16.2282C13.7887 16.2384 13.8648 16.1368 13.9512 16.0708C14.8653 15.2635 15.627 14.2735 16.1095 13.1463C16.1856 12.9584 16.3075 12.7604 16.2364 12.5522C16.1907 12.3999 16.1552 12.2019 15.9825 12.146C15.363 11.882 14.7434 11.6281 14.0934 11.4403C13.4687 11.2473 12.8289 11.1001 12.1941 10.9529C11.9655 10.9275 11.6608 10.9325 11.544 11.1712C11.2952 11.5672 11.0413 11.9582 10.7874 12.3491C10.6299 12.5928 10.3608 12.7452 10.0815 12.801C9.58889 12.8975 9.06582 12.7553 8.65955 12.4608C7.11574 11.3184 5.72428 9.95769 4.60197 8.39386C4.36837 8.0943 4.20078 7.73888 4.17539 7.353C4.13984 6.94174 4.27188 6.47462 4.63752 6.24106C5.0641 5.95673 5.50083 5.68763 5.93757 5.40837C6.1407 5.30175 6.11531 5.01742 6.10008 4.8194C5.74967 3.51959 5.2977 2.25533 4.86096 0.98091C4.83049 0.914904 4.82034 0.818434 4.734 0.803202C4.55626 0.757505 4.36837 0.6915 4.19062 0.737196Z" fill="white"/>
</svg>
