<svg width="19" height="16" viewBox="0 0 19 16" fill="none" xmlns="http://www.w3.org/2000/svg">
<path d="M12.5168 11.007C11.0998 11.007 9.94594 9.65792 9.94594 7.99908C9.94594 6.34391 11.0998 4.99393 12.5168 4.99393H17.4056V11.007H12.5168ZM12.433 7.27231C12.0907 7.27231 11.8118 7.59858 11.8118 7.99908C11.8118 8.40142 12.0907 8.72586 12.433 8.72586C12.7753 8.72586 13.0542 8.40142 13.0542 7.99908C13.0542 7.59858 12.7753 7.27231 12.433 7.27231ZM15.8256 0H2.7628C2.41892 0 2.14162 0.326269 2.14162 0.726773C2.14162 1.12728 2.41892 1.45355 2.7628 1.45355H15.8256C16.6967 1.45355 17.4056 2.28297 17.4056 3.30485V3.53947H12.5168C10.4144 3.53947 8.7028 5.53924 8.7028 7.99908C8.7028 10.4598 10.4144 12.4615 12.5168 12.4615H17.4056V12.6961C17.4056 13.7161 16.6967 14.5455 15.8256 14.5455H2.82312C1.95206 14.5455 1.24314 13.7161 1.24314 12.6961V3.23244C1.24314 2.83011 0.965062 2.50475 0.621964 2.50475C0.278082 2.50475 0 2.83011 0 3.23244V12.6961C0 14.519 1.26664 16 2.82312 16H15.8256C17.3821 16 18.6495 14.519 18.6495 12.6961V3.30485C18.6495 1.48104 17.3821 0 15.8256 0Z" fill="white"/>
</svg>
