<svg width="17" height="17" viewBox="0 0 17 17" fill="none" xmlns="http://www.w3.org/2000/svg">
<path fill-rule="evenodd" clip-rule="evenodd" d="M7.76396 1.9613C4.55931 1.9613 1.96142 4.55918 1.96142 7.76383C1.96142 10.9685 4.55931 13.5664 7.76396 13.5664C9.28108 13.5664 10.6622 12.9841 11.6961 12.0309C11.7196 11.9545 11.7616 11.8825 11.8221 11.822C11.8826 11.7615 11.9546 11.7195 12.031 11.696C12.9843 10.6621 13.5665 9.28095 13.5665 7.76383C13.5665 4.55918 10.9686 1.9613 7.76396 1.9613ZM12.9292 12.2121C13.9583 11.0182 14.5805 9.46368 14.5805 7.76383C14.5805 3.99915 11.5286 0.947266 7.76396 0.947266C3.99927 0.947266 0.947388 3.99915 0.947388 7.76383C0.947388 11.5285 3.99927 14.5804 7.76396 14.5804C9.46381 14.5804 11.0183 13.9582 12.2122 12.9291L15.2924 16.0093C15.4904 16.2073 15.8114 16.2073 16.0094 16.0093C16.2074 15.8113 16.2074 15.4903 16.0094 15.2923L12.9292 12.2121Z" fill="white"/>
</svg>
