<svg width="44" height="35" viewBox="0 0 44 35" fill="none" xmlns="http://www.w3.org/2000/svg">
<path d="M26 34C26.2077 34 26.8338 34.1557 27 34L43 18C43.1454 17.8548 42.9896 18.1972 43 18C43 17.9482 43 17.0623 43 17C42.9792 16.8444 43.1143 17.1246 43 17C42.9896 16.9793 43.0104 17.0208 43 17L27 1.00004C26.678 0.678371 26.322 0.678371 26 1.00004C25.678 1.32172 25.678 1.67837 26 2.00004L40 17H1C0.542995 17 0 17.5435 0 18C0 18.4566 0.542995 18 1 18H40L26 33C25.8338 33.1661 26 32.7821 26 33C26 33.2179 25.8442 33.834 26 34C25.7923 34 26.1662 34.1557 26 34Z" fill="white"/>
</svg>
