<svg width="11" height="12" viewBox="0 0 11 12" fill="none" xmlns="http://www.w3.org/2000/svg">
<path d="M4.24997 0.0941785C4.3309 0.0459497 4.41846 -0.0111999 4.51316 0.00190268C4.57072 0.0130538 4.58351 0.0880454 4.58523 0.143244C4.58892 0.359019 4.55818 0.575909 4.58572 0.791126C4.61057 0.989617 4.67673 1.18476 4.78988 1.3406C4.93672 1.54801 5.14137 1.68545 5.31502 1.86052C5.54501 2.0894 5.77327 2.35062 5.86305 2.69184C5.95651 3.03948 5.89724 3.42475 5.74547 3.74005C5.53099 4.17746 5.13547 4.48774 4.70428 4.58336C4.76799 4.43951 4.84498 4.3004 4.87203 4.13982C4.94115 3.82592 4.87129 3.49305 4.73232 3.21678C4.60196 2.94916 4.43224 2.7069 4.23669 2.4967C4.21431 2.46966 4.18159 2.46241 4.15208 2.4507C4.00548 2.71665 3.91423 3.01997 3.86011 3.32634C3.8028 3.6475 3.83429 3.99792 3.99269 4.27782C4.06353 4.41442 4.16757 4.52203 4.26842 4.62936C3.86233 4.60873 3.45844 4.42473 3.17213 4.09327C2.91608 3.80529 2.76284 3.39855 2.77514 2.98791C2.7808 2.20147 3.07129 1.44375 3.5069 0.841028C3.71868 0.551376 3.96194 0.284863 4.24997 0.0941785Z" fill="#565D64"/>
<path d="M4.93082 5.10217C5.10866 5.08293 5.28944 5.057 5.46679 5.09408C5.58559 5.11861 5.70243 5.18719 5.76909 5.30484C5.84706 5.44367 5.85862 5.61401 5.86108 5.77458C5.86157 7.06756 5.86059 8.36054 5.86132 9.65351C4.85358 9.66244 3.8456 9.65658 2.83761 9.6563C2.83368 9.36777 2.83565 9.07923 2.83712 8.79069C2.71119 8.82693 2.57467 8.8431 2.45144 8.78651C2.24335 8.7026 2.09429 8.45226 2.12037 8.20052C2.13217 8.00844 2.23892 7.85205 2.3137 7.68673C2.50432 7.26912 2.5732 6.7977 2.61231 6.33465C2.62903 6.09936 2.65732 5.84957 2.78793 5.65666C2.91657 5.46346 3.12761 5.37258 3.33128 5.33049C3.86233 5.23654 4.39559 5.15737 4.93082 5.10217Z" fill="#565D64"/>
<path d="M8.38375 7.50915C8.75861 7.33379 9.18413 7.30898 9.57498 7.4283C10.0347 7.56462 10.4433 7.90529 10.6981 8.3597C10.8794 8.67695 10.9795 9.04996 10.9982 9.42631C11.0201 9.98275 10.8454 10.5456 10.5175 10.961C10.2177 11.346 9.79439 11.6069 9.34451 11.6735C8.96448 11.7393 8.57142 11.6546 8.22731 11.4653C8.07186 11.6381 7.87115 11.7455 7.66896 11.8294C7.39938 11.9384 7.11454 11.9994 6.82799 11.9997C5.164 12 3.49977 11.9994 1.83553 12C1.34138 11.9902 0.819676 11.8609 0.436947 11.4862C0.164166 11.2278 0.0195353 10.8275 0.00354727 10.4302C0.00453115 10.3555 -0.0171142 10.2632 0.0360153 10.2047C0.0677454 10.1645 0.117431 10.1601 0.161706 10.1598C2.52376 10.1592 4.88581 10.1612 7.24786 10.1587C7.14603 9.70648 7.14553 9.21918 7.28918 8.77843C7.47145 8.20414 7.88345 7.73189 8.38375 7.50915ZM8.95415 8.38563C8.51879 8.4411 8.1459 8.85398 8.08342 9.34463C8.03299 9.69422 8.13556 10.0664 8.35399 10.3201C8.57118 10.581 8.90078 10.7123 9.21439 10.6646C9.54571 10.6192 9.84702 10.3714 9.99338 10.0324C10.2042 9.57406 10.0883 8.96632 9.73363 8.6435C9.52087 8.43832 9.23038 8.34325 8.95415 8.38563Z" fill="#565D64"/>
</svg>
