<svg width="10" height="11" viewBox="0 0 10 11" fill="none" xmlns="http://www.w3.org/2000/svg">
<path d="M0.340291 0.572448C0.519842 0.474625 0.751237 0.474625 0.927272 0.580648C1.04853 0.650354 1.14109 0.757256 1.23922 0.854492C2.12262 1.73811 3.00631 2.62144 3.88971 3.50507C4.26141 3.87146 4.62314 4.24781 5.00041 4.60835C6.31408 3.30971 7.61341 1.99614 8.92299 0.693115C9.04747 0.572741 9.21706 0.491613 9.39281 0.500692C9.6368 0.504792 9.86555 0.670856 9.95489 0.896082C10.0272 1.07269 10.0129 1.28415 9.90949 1.44553C9.82718 1.57498 9.70651 1.67251 9.60165 1.78234C8.36559 3.0224 7.12133 4.25455 5.88996 5.49929C7.18928 6.81287 8.50325 8.11238 9.8061 9.42214C9.92091 9.539 10.0006 9.69657 9.99971 9.86293C10.0064 10.0943 9.86819 10.3201 9.66374 10.4258C9.49532 10.5178 9.28297 10.5231 9.11074 10.4384C8.97747 10.3746 8.87964 10.2604 8.77595 10.159C7.95171 9.3334 7.12572 8.50923 6.3012 7.6836C5.86653 7.25336 5.43976 6.81462 5.00041 6.38877C3.75087 7.62502 2.51335 8.87387 1.26851 10.1148C1.11532 10.2656 0.966814 10.4516 0.741571 10.4885C0.423476 10.5544 0.0872215 10.3286 0.0172173 10.0138C-0.0393134 9.7944 0.0482651 9.56038 0.208191 9.40662C1.06699 8.54702 1.92666 7.68799 2.78575 6.82868C3.22599 6.38467 3.67443 5.94828 4.10939 5.49929C3.65627 5.02951 3.18703 4.57496 2.72805 4.11074C1.89269 3.27633 1.05849 2.44074 0.223129 1.60661C0.110654 1.49502 0.01751 1.35298 0.00403641 1.19131C-0.0243754 0.942064 0.116512 0.684621 0.340291 0.572448Z" fill="#F82D20"/>
</svg>
