<svg width="111" height="109" viewBox="0 0 111 109" fill="none" xmlns="http://www.w3.org/2000/svg">
<path d="M95.6863 77.1029C95.8271 80.5958 93.1011 84.208 89.8604 85.4446L49.3349 101.015C46.0942 102.251 41.788 100.771 39.604 98.0423L12.989 64.4945C10.8232 61.8185 9.98646 57.486 11.9376 54.5696L35.6792 17.8859C37.5775 14.9877 42.2462 13.5534 45.5791 14.469L87.5755 26.0892C90.9084 27.0048 94.1431 30.5686 94.284 34.0616L95.6863 77.1029Z" fill="#F89B20"/>
<path d="M48.8474 32.0646C50.2993 31.8853 51.8028 32.0956 53.1365 32.7018C53.5133 32.8784 53.6632 33.4042 53.4246 33.7472C53.2548 34.0338 52.8684 34.1596 52.5591 34.042C52.2057 33.9183 51.864 33.7561 51.4935 33.6839C49.5232 33.1451 47.3267 33.6516 45.7427 34.928C44.4248 35.9754 43.54 37.5494 43.3262 39.2181C43.1791 40.313 43.3338 41.4264 43.6459 42.4794C44.3905 44.9255 45.7792 47.127 47.4044 49.0824C49.5307 51.6068 52.126 53.732 55.0003 55.3506C56.6757 54.4145 58.2466 53.2914 59.6944 52.0323C61.774 50.2157 63.5965 48.0865 64.9687 45.685C65.3888 44.9152 65.782 44.1269 66.0735 43.298C66.5025 42.1784 66.7768 40.9804 66.7225 39.7749C66.664 38.3927 66.1498 37.0325 65.2801 35.9569C64.0372 34.374 62.0284 33.4331 60.0182 33.4743C57.6244 33.4963 55.3042 34.9438 54.2454 37.0937C54.1382 37.3287 53.9925 37.5796 53.7353 37.6717C53.4995 37.6971 53.2135 37.739 53.0307 37.5514C52.7337 37.3349 52.6746 36.9005 52.8554 36.5919C53.8776 34.4434 55.8968 32.7994 58.2122 32.2447C60.8934 31.534 63.8921 32.4104 65.8308 34.3761C66.7321 35.2751 67.4161 36.3912 67.8066 37.6023C68.1992 38.691 68.226 39.867 68.1469 41.0086C67.9503 42.6883 67.3426 44.2918 66.5733 45.7881C65.3764 48.1284 63.7278 50.2192 61.851 52.0515C60.0773 53.7842 58.0816 55.2901 55.927 56.519C55.6864 56.6524 55.454 56.8022 55.201 56.9101C54.9563 56.9685 54.7095 56.9039 54.5053 56.7651C52.3762 55.585 50.3825 54.1554 48.6074 52.4887C47.2497 51.222 46.0081 49.8281 44.9453 48.3036C43.6315 46.4039 42.5411 44.3104 42.0235 42.0478C41.8165 41.144 41.7897 40.2127 41.8406 39.2903C42.084 36.5693 43.8343 34.0427 46.2934 32.8509C47.0936 32.4509 47.9605 32.1863 48.8474 32.0646Z" fill="white"/>
<path d="M61.4055 35.2104C61.5114 35.1878 61.6221 35.1878 61.73 35.1988C63.0122 35.607 64.1107 36.55 64.7109 37.7555C64.8697 38.1006 65.1097 38.4827 64.9653 38.8738C64.8182 39.2793 64.2854 39.4608 63.9189 39.2394C63.7374 39.146 63.6268 38.9659 63.5649 38.7783C63.2053 37.8284 62.4416 37.0394 61.4935 36.6689C61.2433 36.5796 60.9827 36.4284 60.9064 36.1548C60.7641 35.7658 61.0199 35.3287 61.4055 35.2104Z" fill="white"/>
<path d="M35.4216 45.2424C35.8905 45.2218 36.3793 45.1778 36.8282 45.3441C37.999 45.7015 38.87 46.8631 38.868 48.0899C38.868 50.0384 38.8686 51.9869 38.8673 53.9354C38.8824 54.3458 38.5002 54.7197 38.0863 54.6688C37.6704 54.6674 37.3823 54.2585 37.3844 53.8688C37.3823 51.9416 37.3851 50.015 37.3837 48.0878C37.4098 47.6954 37.2036 47.3174 36.9224 47.0562C36.479 46.6266 35.7509 46.5572 35.2188 46.8576C34.7348 47.1174 34.431 47.6775 34.4674 48.2239C34.4708 51.9154 34.466 55.6063 34.4702 59.2978C34.5025 60.3157 34.8531 61.3494 35.5468 62.1089C37.5061 64.0677 39.4647 66.0272 41.4261 67.984C41.611 68.1551 41.8159 68.3641 41.7801 68.6397C41.8269 68.9586 41.5979 69.2603 41.3051 69.3627C41.1387 69.3882 40.9641 69.393 40.7998 69.3538C40.5921 69.2569 40.4492 69.0713 40.2869 68.9167C38.4658 67.0946 36.6433 65.2733 34.8215 63.4519C33.6129 62.3577 32.9708 60.7047 33.001 59.0868C33.0017 55.4207 33.0003 51.7546 33.0017 48.0892C32.9928 47.4308 33.2588 46.7888 33.6637 46.2775C34.1024 45.7379 34.7417 45.3743 35.4216 45.2424Z" fill="white"/>
<path d="M73.5099 45.2513C73.8681 45.2101 74.2325 45.2183 74.592 45.2444C75.3462 45.3963 76.0529 45.8293 76.4819 46.4747C76.7988 46.9483 77.0058 47.5112 76.9989 48.0858C77.0003 51.7759 76.9996 55.4661 76.9996 59.1562C77.0147 60.3851 76.6249 61.6106 75.9182 62.6154C75.6432 63.0402 75.2513 63.366 74.9021 63.7261C73.0796 65.5468 71.2598 67.3709 69.4359 69.1909C69.2304 69.4184 68.8729 69.4287 68.6062 69.3243C68.1552 69.1194 68.0747 68.4431 68.437 68.1222C70.2609 66.3022 72.0814 64.4794 73.9039 62.6581C74.185 62.3673 74.4992 62.1034 74.7295 61.7673C75.2238 61.0683 75.494 60.2161 75.5297 59.3645C75.5339 55.6283 75.5297 51.8914 75.5311 48.1552C75.5765 47.3043 74.7433 46.5551 73.9004 46.6823C73.182 46.7421 72.5523 47.4273 72.6155 48.1573C72.619 50.0611 72.6162 51.9649 72.6169 53.8681C72.6279 54.2839 72.2794 54.7073 71.8428 54.6695C71.4544 54.6805 71.1189 54.3176 71.132 53.9354C71.1326 52.1471 71.1326 50.3594 71.1326 48.571C71.1299 48.1689 71.1189 47.7593 71.2316 47.3689C71.5149 46.3098 72.432 45.4554 73.5099 45.2513Z" fill="white"/>
<path d="M39.6207 55.5692C40.1845 55.4984 40.7805 55.4956 41.3099 55.7328C41.712 55.8908 42.0613 56.1582 42.3652 56.4613C44.0117 58.1122 45.6637 59.759 47.3116 61.4092C48.2513 62.2684 48.8474 63.4698 49.0571 64.7186C49.1574 65.2643 49.1299 65.8204 49.1334 66.3723C49.1327 67.3792 49.1347 68.3861 49.1327 69.393C49.1519 69.7834 48.7924 70.1477 48.4005 70.1284C48.0121 70.1525 47.6519 69.7854 47.6773 69.3985C47.6745 68.1132 47.68 66.8273 47.6745 65.5413C47.612 64.5021 47.2531 63.4464 46.5175 62.6883C44.7631 60.9364 43.01 59.1823 41.2563 57.4304C40.9696 57.1369 40.5591 56.9575 40.1467 56.9864C39.6634 56.9823 39.2323 57.3218 39.0261 57.7438C38.8845 58.0022 38.9257 58.3108 38.9456 58.5933C39.0178 58.8841 39.1863 59.148 39.3959 59.3604C40.6121 60.5728 41.8241 61.7893 43.0403 63.0024C43.1881 63.1419 43.2761 63.3433 43.274 63.5474C43.2671 63.9969 42.7769 64.388 42.3377 64.2402C42.1238 64.1894 41.9815 64.0121 41.833 63.8657C40.6657 62.6959 39.4956 61.5288 38.3276 60.3597C37.6814 59.7178 37.3273 58.7707 37.4731 57.862C37.6319 56.7541 38.5311 55.8104 39.6207 55.5692Z" fill="white"/>
<path d="M69.1836 55.5747C69.515 55.5101 69.8581 55.5334 70.1949 55.5437C71.1876 55.6764 72.0552 56.4111 72.3962 57.3465C72.7778 58.3645 72.4643 59.5638 71.7074 60.3267C70.472 61.5646 69.2325 62.7996 67.9964 64.0375C67.7956 64.2561 67.4588 64.3372 67.1858 64.2114C66.7534 64.0347 66.5657 63.432 66.8971 63.0746C68.1559 61.7927 69.4415 60.5357 70.7023 59.2559C71.0453 58.8902 71.1546 58.3624 71.0343 57.8827C70.8824 57.4854 70.5559 57.1445 70.1434 57.0228C69.6463 56.8977 69.0963 57.0579 68.7443 57.4304C66.9789 59.194 65.2148 60.9597 63.4501 62.7234C62.7379 63.4815 62.3866 64.52 62.3254 65.5448C62.3219 66.806 62.324 68.0679 62.3247 69.3298C62.3446 69.5442 62.2807 69.7648 62.1198 69.914C61.8586 70.2068 61.3443 70.2026 61.0824 69.9126C60.938 69.7806 60.8597 69.5868 60.8672 69.3923C60.8659 68.1785 60.8672 66.9647 60.8672 65.7516C60.8445 64.2842 61.3904 62.8093 62.3783 61.7233C64.1541 59.9473 65.9284 58.1706 67.7049 56.396C68.1077 55.9891 68.6254 55.7032 69.1836 55.5747Z" fill="white"/>
<path d="M37.3837 72.4165C37.3748 72.0254 37.6656 71.5821 38.0932 71.613C42.0317 71.6123 45.9703 71.6123 49.9088 71.613C50.3358 71.58 50.6266 72.0247 50.6176 72.4144C50.6176 73.312 50.6169 74.2096 50.6183 75.1073C50.6279 75.4262 50.498 75.7808 50.1921 75.9245C49.7631 76.152 49.1822 75.8386 49.1402 75.3554C49.1224 74.5932 49.1375 73.8296 49.1334 73.0673C45.7111 73.0715 42.2888 73.0687 38.8666 73.0687C38.8673 73.8165 38.8728 74.5636 38.8645 75.3114C38.8515 75.7224 38.4376 76.0619 38.0306 75.9898C37.658 75.9547 37.4016 75.598 37.3906 75.2406C37.3748 74.299 37.3899 73.3574 37.3837 72.4165Z" fill="white"/>
<path d="M59.383 72.4151C59.3754 72.0247 59.6641 71.5821 60.0924 71.6137C64.031 71.6123 67.9696 71.6123 71.9074 71.613C72.3117 71.5807 72.597 71.9807 72.6135 72.3512C72.6238 73.2687 72.6114 74.187 72.6183 75.1052C72.6272 75.4248 72.4973 75.7801 72.1907 75.9238C71.7631 76.1527 71.1808 75.8386 71.1395 75.3547C71.1203 74.5932 71.1381 73.8302 71.1326 73.068C67.7104 73.0701 64.2881 73.0694 60.8659 73.0687C60.8652 73.8165 60.8734 74.5636 60.8638 75.3114C60.8507 75.7231 60.4362 76.0626 60.0292 75.9898C59.6318 75.952 59.3775 75.552 59.3837 75.176C59.3816 74.2557 59.3837 73.3354 59.383 72.4151Z" fill="white"/>
</svg>
