<svg width="111" height="109" viewBox="0 0 111 109" fill="none" xmlns="http://www.w3.org/2000/svg">
<path d="M95.6863 77.1029C95.8271 80.5958 93.1011 84.208 89.8604 85.4446L49.3349 101.015C46.0942 102.251 41.788 100.771 39.604 98.0423L12.989 64.4945C10.8232 61.8185 9.98646 57.486 11.9376 54.5696L35.6792 17.8859C37.5775 14.9877 42.2462 13.5534 45.5791 14.469L87.5755 26.0892C90.9084 27.0048 94.1431 30.5686 94.284 34.0616L95.6863 77.1029Z" fill="#FEC013"/>
<path d="M56.7846 31.0616C58.2979 30.8839 59.8611 31.0881 61.2584 31.7056C61.5404 31.8224 61.7702 32.097 61.7702 32.4113C61.8091 32.8996 61.2805 33.3467 60.8061 33.2006C60.4353 33.0868 60.0858 32.9098 59.7055 32.8261C57.9763 32.3239 56.0599 32.5662 54.4871 33.4348C52.6213 34.4394 51.2534 36.3265 50.9054 38.4199C50.7725 39.0742 50.8216 39.7468 50.8349 40.4099C50.9825 41.7411 51.4333 43.018 51.9796 44.234C53.0266 46.4942 54.5069 48.5311 56.1972 50.3521C56.9711 51.1459 57.7435 51.9477 58.6107 52.6431C60.0476 53.898 61.6373 54.9686 63.285 55.9261L63.3511 55.9327C63.8585 55.6463 64.36 55.346 64.8526 55.0347C65.4019 54.6308 66.0003 54.2974 66.5268 53.8613C67.6751 53.0154 68.7508 52.0733 69.7729 51.0791C70.2157 50.568 70.7245 50.1179 71.1445 49.5862C71.5763 49.1082 71.9742 48.603 72.3597 48.0883C73.768 46.1828 74.9619 44.082 75.5765 41.7808C75.6668 41.3982 75.7439 41.012 75.7939 40.6221C75.8034 40.1338 75.9297 39.6455 75.8306 39.1586C75.7263 36.8162 74.3018 34.6097 72.2599 33.4789C71.1805 32.8878 69.9521 32.5346 68.7163 32.5735C67.6766 32.5559 66.6523 32.8526 65.7183 33.2931C64.2674 33.9914 63.0889 35.2118 62.4083 36.6679C62.1865 37.1665 61.3965 37.2377 61.0896 36.7898C60.9192 36.5703 60.9038 36.2589 60.9978 36.0041C62.3261 33.0736 65.4188 31.0315 68.6422 31.0051C71.3119 30.9236 73.9663 32.2145 75.5964 34.3219C76.4709 35.4314 77.045 36.7648 77.3123 38.149C77.4555 38.8935 77.4408 39.6543 77.4085 40.4084C77.1442 42.8257 76.1346 45.0939 74.8929 47.1594C73.7945 48.9467 72.4713 50.5915 70.9955 52.0806C69.1987 53.8686 67.2045 55.4657 65.0289 56.7713C64.6221 57.0268 64.1977 57.2552 63.7843 57.5004C63.531 57.6759 63.1705 57.6774 62.9113 57.5136C59.5351 55.6662 56.4872 53.21 54.0069 50.2647C52.3122 48.2256 50.876 45.9449 49.9684 43.4461C49.4412 41.9599 49.1094 40.3717 49.276 38.79C49.4941 36.4667 50.713 34.2587 52.5596 32.8335C53.7815 31.8914 55.2514 31.2577 56.7846 31.0616Z" fill="white"/>
<path d="M70.0057 34.5054C70.2803 34.3241 70.6254 34.4181 70.8971 34.5546C72.243 35.0848 73.3341 36.1921 73.8745 37.5307C73.9707 37.7752 74.1198 38.0521 73.9795 38.3113C73.8716 38.6329 73.5441 38.8752 73.1983 38.8253C72.8517 38.8451 72.5859 38.5462 72.4801 38.2437C72.127 37.3185 71.4213 36.5277 70.5263 36.0981C70.3163 35.9828 70.071 35.9336 69.8801 35.786C69.4697 35.4681 69.5394 34.7397 70.0057 34.5054Z" fill="white"/>
<path d="M32.5474 56.0913C32.6568 56.0678 32.7691 56.0693 32.8807 56.0678C34.4249 56.07 35.969 56.0671 37.5132 56.0693C38.7416 56.0392 39.8577 57.1663 39.8254 58.3933C39.8254 64.1692 39.8261 69.9458 39.8246 75.7225C39.8437 76.9407 38.7254 78.0201 37.5161 77.998C35.9455 77.9988 34.3757 77.9988 32.8058 77.998C32.3939 78.0296 32.0069 77.6728 32.0033 77.2608C31.9592 76.8232 32.3675 76.3988 32.8051 76.4311C34.3727 76.4318 35.9396 76.4318 37.5066 76.4311C37.8025 76.4509 38.0785 76.2475 38.1968 75.9854C38.2981 75.7643 38.2643 75.5162 38.2702 75.2819C38.268 69.6756 38.2695 64.0701 38.2695 58.4638C38.3062 58.0166 37.8862 57.5981 37.4419 57.626C35.8978 57.6296 34.3536 57.6252 32.8095 57.6289C32.3895 57.6641 31.9871 57.2706 32.0033 56.8513C31.9842 56.5098 32.2478 56.2161 32.5474 56.0913Z" fill="white"/>
<path d="M41.9745 59.2172C42.0942 59.1665 42.2271 59.1856 42.3541 59.1805C44.46 59.1929 46.5666 59.1709 48.6725 59.1915C49.9442 59.3897 51.0471 60.1196 52.0706 60.8598C53.0421 61.5515 53.9753 62.2968 54.9724 62.9532C55.54 63.3395 56.1377 63.7323 56.8206 63.8689C58.5351 63.8916 60.251 63.8718 61.967 63.8792C62.9399 63.968 63.9517 64.2419 64.6808 64.9263C64.9239 65.1341 64.8952 65.4821 64.8482 65.7663C64.7036 66.0703 64.3732 66.2913 64.0295 66.2399C63.7366 66.2355 63.5501 65.9807 63.3144 65.8471C62.8643 65.5805 62.3319 65.4718 61.8128 65.474C60.2209 65.4711 58.6298 65.4755 57.0379 65.4726C56.347 65.4696 55.7038 65.1781 55.0987 64.8727C53.7264 64.1207 52.5266 63.106 51.2585 62.1991C50.619 61.7725 50.0044 61.2959 49.2937 60.9905C49.0242 60.8767 48.7437 60.7621 48.4463 60.7687C46.3662 60.7673 44.286 60.7695 42.2066 60.768C41.9114 60.7805 41.628 60.6086 41.4921 60.3494C41.2865 59.9221 41.4965 59.3427 41.9745 59.2172Z" fill="white"/>
<path d="M75.4333 62.3482C76.1603 62.2395 76.9099 62.4341 77.5348 62.8093C78.2191 63.2543 78.7375 63.9577 78.9233 64.7566C79.1054 65.5834 78.9659 66.4918 78.4769 67.1915C78.2331 67.5792 77.8865 67.8898 77.5047 68.1373C74.1814 70.1977 70.8626 72.264 67.5444 74.3325C67.0488 74.635 66.5642 74.9654 66.0187 75.1732C64.4885 75.8348 62.8312 76.1579 61.1762 76.3011C60.7518 76.3907 60.3127 76.3165 59.8876 76.4024C58.4682 76.5023 57.0408 76.3657 55.6553 76.05C52.4216 75.2951 49.3671 73.9308 46.4403 72.3881C45.2347 71.9277 43.9321 71.7852 42.6493 71.7412C42.3108 71.7243 41.9048 71.7999 41.6515 71.515C41.2131 71.1361 41.4143 70.3167 41.9848 70.1904C42.7477 70.136 43.5091 70.2212 44.2676 70.2873C45.4799 70.4371 46.7076 70.7 47.7767 71.3153C50.4193 72.6627 53.1639 73.8625 56.0606 74.5454C57.2024 74.7767 58.3691 74.9383 59.5359 74.8538C59.8766 74.7899 60.2239 74.8186 60.5682 74.7929C61.5213 74.6996 62.4817 74.6137 63.4106 74.3648C64.2535 74.1724 65.0876 73.9154 65.8615 73.5255C66.2676 73.3023 66.6501 73.0394 67.0473 72.8015C70.2517 70.7939 73.4663 68.8026 76.6757 66.8024C77.1236 66.5424 77.4327 66.0394 77.4291 65.5174C77.468 64.9542 77.1332 64.4005 76.6566 64.1141C76.3027 63.8975 75.8688 63.8916 75.4701 63.9504C75.1103 64.0532 74.7989 64.2691 74.4568 64.4137C71.5799 65.8059 68.7149 67.2209 65.8329 68.6021C64.7432 69.1234 63.5236 69.307 62.3246 69.3188C61.5947 69.4083 60.8583 69.3592 60.1255 69.3738C57.4439 69.4223 54.7823 69.0603 52.1316 68.7012C51.7901 68.6161 51.4017 68.6689 51.1095 68.4391C50.6197 68.1175 50.749 67.2517 51.3136 67.0851C51.611 67.0513 51.9157 67.066 52.2094 67.1299C53.4753 67.2973 54.7389 67.5007 56.0114 67.6123C58.2781 67.8406 60.5646 67.8752 62.8393 67.7445C63.5449 67.6886 64.2557 67.5836 64.9114 67.3039C65.8835 66.867 66.8322 66.3794 67.7919 65.9146C69.9873 64.855 72.1762 63.7815 74.3679 62.716C74.6969 62.5281 75.0603 62.4076 75.4333 62.3482Z" fill="white"/>
<path d="M34.3786 71.7896C34.662 71.6957 34.9778 71.7199 35.2502 71.8381C35.6386 72.0276 35.8868 72.4366 35.9301 72.8602C35.9543 73.3603 35.607 73.8288 35.1525 74.0131C34.629 74.2077 34.0027 73.983 33.7222 73.4998C33.3455 72.8933 33.6906 71.985 34.3786 71.7896Z" fill="white"/>
</svg>
