<svg width="148" height="146" viewBox="0 0 148 146" fill="none" xmlns="http://www.w3.org/2000/svg">
<path d="M128.265 103.921C128.454 108.59 124.81 113.419 120.477 115.072L66.3037 135.886C61.9715 137.539 56.2151 135.56 53.2955 131.913L17.7171 87.0664C14.8218 83.4892 13.7033 77.6976 16.3115 73.7989L48.049 24.7609C50.5865 20.8866 56.8276 18.9693 61.2829 20.1932L117.423 35.7269C121.878 36.9508 126.203 41.7149 126.391 46.3842L128.265 103.921Z" fill="url(#paint0_linear)"/>
<path d="M63 46.0001C65.6299 43.8823 68.6003 43.0637 72 43.0001C75.7784 42.901 80.1505 44.5557 83 47.0001C85.2909 48.9256 86.4607 51.0852 87 54.0001C87.4138 56.178 86.9265 58.9613 86 61.0001C89.0618 62.7169 92.4691 64.8776 94 68.0001C94.789 69.6143 94.8854 71.2113 95 73.0001C95.1049 75.593 94.3174 78.7349 93 81.0001C91.6162 83.4291 89.4164 85.5674 87 87.0001C87.6526 87.8774 88.9023 88.8964 89 90.0001C89.0965 90.9281 88.5621 91.2407 88 92.0001C87.5102 92.6934 86.5863 93.3928 86 94.0001C85.6477 94.3515 85.772 94.5319 86 95.0001C86.3727 95.7877 86.6899 96.177 87 97.0001C87.3341 98.1427 86.0013 99.6875 85 99.0001C84.1217 98.3704 83.4294 97 83 96.0001C82.439 94.7254 83.1519 93.1026 84 92.0001C84.4693 91.361 84.4354 91.5496 85 91.0001C85.2569 90.7572 86.041 90.3644 86 90.0001C85.9457 89.2478 85.4584 88.5672 85 88.0001C83.6247 89.9315 81.9085 91.5615 80 93.0001C78.2217 94.3243 76.2318 95.6369 74 96.0001C72.6488 96.2548 71.2872 95.4423 70 95.0001C68.1373 94.348 66.5019 93.2429 65 92.0001C63.4196 90.6936 61.2148 89.6356 60 88.0001C59.5319 88.625 59.8685 89.1723 60 90.0001C60.2183 90.6569 60.5343 91.5213 61 92.0001C62.0556 92.8868 62.152 93.6311 62 95.0001C61.8685 96.5153 61.2172 98.1711 60 99.0001C58.9975 99.6439 57.6381 98.1427 58 97.0001C58.3112 96.1523 58.6284 95.8137 59 95.0001C59.2111 94.5378 59.3438 94.3479 59 94.0001C58.3968 93.3716 57.4946 92.7264 57 92.0001C56.2544 90.9683 56.5633 90.1745 57 89.0001C57.2328 88.3221 57.5958 87.5896 58 87.0001C54.9345 85.2632 52.2691 82.2711 51 79.0001C49.9709 76.2845 50.071 72.7805 51 70.0001C52.3161 65.9261 55.271 63.1426 59 61.0001C58.0312 59.1146 57.7128 57.0683 58 55.0001C58.4451 51.7361 60.3942 48.066 63 46.0001ZM71 52.0001C70.1495 52.3456 70.269 53.1499 70 54.0001C69.1615 53.5378 67.8131 53.4647 67 54.0001C66.3352 54.3998 66.1351 55.2643 66 56.0001C65.5765 55.8597 64.45 55.9163 64 56.0001C63.0747 56.1333 63.0193 57.0839 63 58.0001C62.9722 58.414 62.8383 58.6263 63 59.0001C64.7891 58.4612 66.1385 58.2147 68 58.0001C72.6048 57.4612 77.5616 57.6193 82 59.0001C82.3993 58.1782 82.7395 56.5896 82 56.0001C81.369 55.4423 79.7491 55.6534 79 56.0001C78.9336 55.1794 78.7359 54.4175 78 54.0001C77.1869 53.506 75.8167 53.5402 75 54.0001C74.8106 53.5567 75.3583 53.3385 75 53.0001C74.1591 52.1593 72.099 51.5131 71 52.0001ZM66 69.0001C65.3461 71.7805 64.1305 74.9707 62 77.0001C60.6657 78.3113 58.8759 78.7619 57 79.0001C56.4499 79.0272 56.0555 79.4553 56 80.0001C55.8938 80.6911 56.3063 81.0248 57 81.0001C58.169 81.0461 58.989 80.4812 60 80.0001C60.9385 83.797 64.0166 87.4307 67 90.0001C68.3909 91.1674 69.2073 92.5367 71 93.0001C72.5104 93.3668 74.6729 92.7335 76 92.0001C78.5334 90.6594 80.3762 88.3077 82 86.0001C83.8192 83.4283 84.9734 81.152 85 78.0001C86.0375 77.9682 86.9685 77.1168 88 77.0001C88.7757 76.8963 89.491 76.5944 89 76.0001C88.6911 75.5555 87.4934 74.934 87 75.0001C83.3639 75.3291 80.5842 75.6852 77 75.0001C73.9297 74.3881 70.4526 72.9539 68 71.0001C67.2339 70.4117 66.6719 69.684 66 69.0001Z" fill="white"/>
<path d="M67 77.0001C67.8469 76.8185 68.4474 77.3492 69 78.0001C69.5151 78.5885 69.2352 79.2572 69 80.0001C68.7708 80.7795 68.8058 81.8043 68 82.0001C67.1724 82.2182 65.5875 81.6073 65 81.0001C64.3171 80.3114 64.5536 79.8585 65 79.0001C65.3209 78.3551 66.281 77.1427 67 77.0001Z" fill="white"/>
<path d="M77 77.0001C77.8167 76.8491 79.4607 77.3822 80 78.0001C80.6321 78.6852 80.4186 80.1747 80 81.0001C79.556 81.9446 78.0399 82.21 77 82.0001C75.8925 81.8126 75.9662 81.1014 76 80.0001C75.9855 78.8999 75.8877 77.1722 77 77.0001Z" fill="white"/>
<defs>
<linearGradient id="paint0_linear" x1="50.8131" y1="20.6489" x2="92.5626" y2="123.816" gradientUnits="userSpaceOnUse">
<stop stop-color="#FFED00"/>
<stop offset="1" stop-color="#FFB800"/>
</linearGradient>
</defs>
</svg>
